<svg width="293" height="150" viewBox="0 0 293 150" fill="none" xmlns="http://www.w3.org/2000/svg">
<g opacity="0.2">
<path fill-rule="evenodd" clip-rule="evenodd" d="M164.462 92.3645C164.179 90.4689 163.878 88.4554 162.592 86.2649C168.819 88.2531 179.716 84.5515 179.716 78.7486C173.693 77.6221 170.913 71.1767 168.162 64.7963C165.78 59.275 163.42 53.8023 158.997 51.8677C161.421 47.0022 158.404 40.4719 153.91 40.4719C153.91 36.8673 149.288 33.586 146.4 33.5214C143.511 33.586 138.889 36.8673 138.889 40.4719C134.396 40.4719 131.395 47.0022 133.802 51.8677C129.379 53.8027 127.018 59.2733 124.637 64.7935C121.885 71.1705 119.105 77.6136 113.084 78.7486C113.084 84.5515 123.98 88.2531 130.207 86.2649C128.921 88.455 128.621 90.4716 128.338 92.3691C127.992 94.6869 127.673 96.8271 125.617 98.8891C126.741 100.021 130.656 100.877 133.064 99.5357C134.203 107.1 145.34 113.663 146.4 114.277C147.475 113.663 158.596 107.117 159.736 99.5357C162.143 100.861 166.075 100.021 167.182 98.8891C165.126 96.8185 164.807 94.6794 164.462 92.3645ZM149.042 63.7639C151.757 62.3519 153.05 59.9824 153.745 57.272C157.51 57.272 160.042 63.2133 162.54 69.0765C164.607 73.9256 166.65 78.7213 169.35 80.0584C162.36 83.5965 150.652 76.0335 149.042 63.7639ZM150.289 45.2296C153.334 46.9987 153.334 48.7677 152.246 51.2508C151.475 53.0119 149.832 52.6359 148.219 52.2667C147.587 52.1222 146.96 51.9786 146.392 51.9649C145.816 51.9742 145.18 52.1192 144.54 52.2651C142.935 52.6313 141.305 53.0031 140.537 51.2508C139.449 48.7677 139.449 46.9987 142.494 45.2296C142.494 43.4931 144.324 41.2047 146.392 41.1398C148.459 41.1885 150.289 43.4768 150.289 45.2296ZM146.392 106.659C159.409 99.1769 155.701 80.2694 146.392 78.4192C137.082 80.2694 133.374 99.1769 146.392 106.659ZM130.258 69.0765C132.757 63.2133 135.289 57.272 139.054 57.272C139.733 59.9824 141.042 62.3519 143.756 63.7639C142.147 76.0497 130.454 83.5965 123.448 80.0584C126.148 78.7213 128.192 73.9256 130.258 69.0765Z" fill="#6A6A6A"/>
<path fill-rule="evenodd" clip-rule="evenodd" d="M219.349 6.33123C259.547 6.33123 292.25 41.4793 292.25 84.672H292.218C292.218 118.792 268.008 144.509 235.89 144.509C227.62 144.509 219.697 142.518 212.599 138.765C207.972 144.9 193.284 148.441 178.311 144.101C178.311 147.805 174.192 149.322 172.971 149.322C171.979 145.371 168.425 142.064 163.996 137.943C158.385 132.722 151.37 126.196 146.384 115.398C141.401 126.183 134.389 132.709 128.779 137.932C124.347 142.057 120.79 145.369 119.797 149.322C118.561 149.322 114.457 147.805 114.457 144.101C99.4683 148.441 84.7803 144.9 80.1695 138.765C73.0711 142.518 65.1488 144.509 56.8779 144.509C24.7767 144.509 0.550293 118.776 0.550293 84.672C0.550293 41.4793 33.2536 6.33123 73.4514 6.33123C84.305 6.33123 94.9367 8.20775 104.618 11.716C105.442 9.25208 112.287 6.10278 113.396 6.10278C113.396 12.1892 120.288 18.8958 125.865 23.171C131.316 21.5066 136.814 19.5974 141.726 16.0565C138.367 15.1101 137.701 9.00732 142.09 8.0609C141.045 5.07478 143.596 1.86021 146.4 0C149.205 1.86021 151.756 5.07478 150.71 8.0609C155.099 9.00732 154.433 15.1101 151.074 16.0565C155.986 19.5974 161.484 21.4903 166.935 23.171C172.512 18.9121 179.404 12.1892 179.404 6.10278C180.529 6.10278 187.374 9.25208 188.182 11.716C197.863 8.22407 208.495 6.33123 219.349 6.33123ZM104.84 33.19C108.69 29.1759 113.697 27.0383 119.1 25.276V25.2596C108.611 18.2431 94.905 13.7394 81.0885 12.434C85.0021 19.5159 80.1854 30.6771 65.9411 29.2575C45.549 27.2178 29.0706 28.9148 19.0727 41.871C10.9285 53.8807 6.11175 68.6808 6.11175 84.6557C6.11175 115.512 27.9457 138.781 56.8938 138.781C63.6753 138.781 70.1716 137.28 76.0975 134.441C72.8968 130.312 67.6206 116.687 70.8054 110.797C71.2794 114.16 73.2516 115.058 75.4311 116.052C77.1852 116.851 79.0735 117.711 80.423 119.967C83.0691 124.405 80.4389 127.571 78.696 128.207C79.4248 129.431 80.2329 130.557 81.136 131.618C91.7678 125.743 98.5968 112.33 100.831 105.836C95.2853 107.582 88.8207 103.454 87.2679 94.8542C80.7399 58.727 45.4698 69.2356 46.6106 81.5717C52.3062 83.6115 51.5003 89.2179 50.8142 93.9918C50.3531 97.1996 49.946 100.031 51.6017 101.153C38.3239 101.153 36.3433 76.6111 49.0032 63.5734C58.7476 53.5381 75.8598 50.7804 89.7397 57.7317C89.5929 53.3194 90.5776 49.7548 91.4957 46.4315C92.6588 42.221 93.715 38.3978 92.2273 33.7285C96.7113 27.7562 103.556 32.3089 104.84 33.19ZM146.416 49.1649C149.474 42.3605 153.578 36.2251 158.585 30.8076C154.417 27.7399 150.187 24.5906 146.416 20.3317C142.661 24.5906 138.414 27.7399 134.247 30.8076C139.238 36.2251 143.342 42.3605 146.416 49.1649ZM174.762 63.606C175.158 61.7621 178.153 58.7107 179.911 58.2049H179.88C176.156 45.7872 169.913 39.5376 163.069 34.2017C163.053 34.2343 163.037 34.2506 163.021 34.267C153.91 43.927 148.349 56.1489 146.384 70.7205C144.419 56.1489 138.858 43.927 129.747 34.267C129.732 34.2343 129.716 34.218 129.7 34.2017C122.839 39.5212 116.612 45.7872 112.889 58.2049C114.647 58.7107 117.658 61.7621 118.038 63.606C112.873 66.6737 109.339 77.2312 109.339 88.3272C109.339 102.621 104.032 116.818 94.7466 127.277C92.1956 130.133 89.4069 132.629 86.4282 134.816C102.748 138.308 114.029 124.21 116.977 119.347C121.461 111.955 133.724 109.556 137.717 118.939C141.504 113.636 144.926 104.596 146.4 94.4952C147.889 104.596 151.312 113.652 155.083 118.939C159.076 109.556 171.339 111.955 175.824 119.347C178.771 124.193 190.068 138.308 206.372 134.816C203.393 132.646 200.589 130.133 198.054 127.277C188.784 116.818 183.461 102.621 183.461 88.3272C183.461 77.2312 179.927 66.6737 174.762 63.606ZM286.704 84.6884C286.704 68.6971 281.887 53.9134 273.743 41.9036V41.9199C263.745 28.9637 247.267 27.2667 226.875 29.3064C212.631 30.726 207.814 19.5648 211.727 12.483C197.911 13.7721 184.205 18.2757 173.716 25.3086C179.135 27.0872 184.126 29.2085 187.976 33.2226C189.26 32.3415 196.105 27.7889 200.589 33.7611C199.103 38.4148 200.159 42.2349 201.322 46.4412C202.243 49.7716 203.23 53.3442 203.076 57.7643C216.956 50.813 234.068 53.5707 243.813 63.606C256.473 76.6601 254.492 101.185 241.214 101.185C242.87 100.064 242.463 97.2322 242.002 94.0245C241.316 89.2506 240.51 83.6441 246.205 81.6043C247.362 69.2682 212.092 58.7597 205.548 94.8869C203.995 103.486 197.531 107.615 191.985 105.869C194.235 112.363 201.048 125.776 211.68 131.65C212.583 130.59 213.391 129.464 214.12 128.24C212.377 127.604 209.731 124.438 212.393 120C213.742 117.744 215.631 116.883 217.385 116.084C219.564 115.091 221.537 114.192 222.011 110.829C225.195 116.703 219.919 130.329 216.718 134.473C222.644 137.313 229.141 138.814 235.922 138.814C264.87 138.814 286.704 115.545 286.704 84.6884ZM222.947 9.14213C214.334 9.14213 215.936 21.5459 224.549 20.7234C233.131 19.9173 248.771 19.358 258.194 21.8749C248.089 14.3405 231.561 9.14213 222.947 9.14213ZM188.113 38.7368C188.113 38.7368 194.903 33.7687 195.125 33.7358V33.7522C194.879 35.8852 195.71 40.6132 196.567 45.4887C197.482 50.6909 198.426 56.061 198.123 58.6256C194.3 61.5044 191.222 65.14 188.938 69.4172C186.273 44.988 177.486 35.0189 167.968 27.4188C168.165 27.2373 168.369 27.0636 168.571 26.8924C168.662 26.8153 168.752 26.7387 168.84 26.662C176.121 28.8829 188.113 38.7368 188.113 38.7368ZM200.835 91.7736C199.471 99.9989 189.953 100.772 189.953 90.1779V90.1614C189.953 51.9631 229.562 54.2826 237.239 62.2447C231.846 60.6819 206.276 59.0204 200.835 91.7736ZM195.6 138.345C183.323 140.369 167.587 132.127 162.194 125.119C157.182 118.605 166.366 111.712 171.442 119.723C174.154 124.017 182.498 135.154 195.6 138.345ZM36.0875 21.8749C46.1919 14.3405 62.7206 9.14213 71.3339 9.14213C79.9472 9.14213 78.3451 21.5459 69.7318 20.7234C61.1502 19.9173 45.5098 19.358 36.0875 21.8749ZM132.087 125.119C126.694 132.127 110.958 140.369 98.6808 138.345C111.783 135.154 120.127 124.017 122.839 119.723C127.915 111.712 137.084 118.605 132.087 125.119ZM57.0418 62.2612C64.7034 54.2991 104.328 51.9795 104.328 90.1779V90.1943C104.328 100.772 94.8103 100.015 93.4462 91.79C88.0053 59.0368 62.435 60.6984 57.0418 62.2612ZM126.303 27.4102C126.307 27.4131 126.31 27.4159 126.313 27.4188V27.4023C126.31 27.4049 126.307 27.4076 126.303 27.4102ZM125.441 26.662C125.739 26.9222 126.021 27.1663 126.303 27.4102C116.79 35.0094 108.007 44.98 105.343 69.4007C103.059 65.14 99.9656 61.488 96.1586 58.6091C95.8468 56.0476 96.7958 50.6598 97.7142 45.445C98.5712 40.5791 99.4017 35.8639 99.1567 33.7358C99.3787 33.7687 106.168 38.7368 106.168 38.7368C106.168 38.7368 118.16 28.8829 125.441 26.662Z" fill="#6A6A6A"/>
</g>
</svg>
