<svg width="50" height="20" viewBox="0 0 50 20" fill="none" xmlns="http://www.w3.org/2000/svg">
<g clip-path="url(#clip0_76_3545)">
<path d="M25.0024 20H50.001V0H25.0024H0.00112152V20H25.0024Z" fill="#19A2DB"/>
<path d="M32.5242 13.8187C33.0492 13.9435 33.4575 13.8215 33.5797 13.6468C32.0826 12.9202 31.827 10.7877 31.827 10.7877H32.2548C31.9826 10.2247 31.6576 9.03502 31.5382 8.05887C32.3048 9.10157 34.1575 8.78266 33.6242 7.84256C33.2686 8.2003 31.9131 8.57745 31.2549 6.49758C30.5938 8.58022 29.2411 8.2003 28.8855 7.84256C28.3522 8.77989 30.2021 9.0988 30.9715 8.05887C30.8521 9.03502 30.5271 10.2247 30.2549 10.7877H30.6827C30.6827 10.7877 30.4271 12.923 28.93 13.6468C29.0522 13.8243 29.4577 13.9463 29.9855 13.8187C29.0133 14.6562 28.0495 13.8464 27.2218 15.3966C28.3661 15.3966 30.116 14.9502 30.5716 13.5913C30.7938 13.4693 31.0271 13.3057 31.2576 13.0838C31.4882 13.3057 31.7215 13.4693 31.9437 13.5913C32.3992 14.9502 34.1491 15.3966 35.2935 15.3966C34.4658 13.8464 33.4992 14.6562 32.5298 13.8187H32.5242ZM22.7887 15.3966C21.6443 15.3966 19.8944 14.9502 19.4389 13.5913C19.2167 13.4693 18.9833 13.3057 18.7528 13.0838C18.5195 13.3057 18.2889 13.4693 18.0667 13.5913C17.6112 14.9502 15.8613 15.3966 14.7169 15.3966C15.5447 13.8464 16.5113 14.6562 17.4807 13.8187C16.9557 13.9435 16.5474 13.8215 16.4252 13.6468C17.9223 12.9202 18.1778 10.7877 18.1778 10.7877H17.7501C18.0223 10.2247 18.3473 9.03502 18.4667 8.05887C17.7001 9.10157 15.8474 8.78266 16.3807 7.84256C16.739 8.2003 18.0917 8.57745 18.75 6.49758C19.4083 8.58022 20.7638 8.2003 21.1193 7.84256C21.6526 8.77989 19.8027 9.0988 19.0333 8.05887C19.1528 9.03502 19.4778 10.2247 19.75 10.7877H19.3222C19.3222 10.7877 19.5778 12.923 21.0749 13.6468C20.9527 13.8243 20.5471 13.9463 20.0194 13.8187C20.9916 14.6562 21.9554 13.8464 22.7831 15.3966H22.7887ZM47.7872 15.3966C46.6428 15.3966 44.8929 14.9502 44.4374 13.5913C44.2152 13.4693 43.9819 13.3057 43.7513 13.0838C43.518 13.3057 43.2875 13.4693 43.0653 13.5913C42.6097 14.9502 40.8598 15.3966 39.7155 15.3966C40.5432 13.8464 41.5098 14.6562 42.4792 13.8187C41.9542 13.9435 41.5459 13.8215 41.4237 13.6468C42.9208 12.9202 43.1764 10.7877 43.1764 10.7877H42.7486C43.0208 10.2247 43.3458 9.03502 43.4652 8.05887C42.6986 9.10157 40.846 8.78266 41.3793 7.84256C41.7376 8.2003 43.0903 8.57745 43.7486 6.49758C44.4069 8.58022 45.7623 8.2003 46.1179 7.84256C46.6512 8.77989 44.8013 9.0988 44.0319 8.05887C44.1513 9.03502 44.4763 10.2247 44.7485 10.7877H44.3208C44.3208 10.7877 44.5763 12.923 46.0734 13.6468C45.9512 13.8243 45.5457 13.9463 45.0179 13.8187C45.9901 14.6562 46.9539 13.8464 47.7817 15.3966H47.7872ZM10.2866 15.3966C9.14225 15.3966 7.39236 14.9502 6.93683 13.5913C6.71462 13.4693 6.4813 13.3057 6.25076 13.0838C6.01744 13.3057 5.7869 13.4693 5.56469 13.5913C5.10916 14.9502 3.35926 15.3966 2.21488 15.3966C3.04261 13.8464 4.00922 14.6562 4.97861 13.8187C4.45364 13.9435 4.04533 13.8215 3.92311 13.6468C5.42025 12.9202 5.67579 10.7877 5.67579 10.7877H5.24804C5.52024 10.2247 5.84523 9.03502 5.96466 8.05887C5.19804 9.10157 3.34537 8.78266 3.87867 7.84256C4.23698 8.2003 5.58968 8.57745 6.24797 6.49758C6.90627 8.58022 8.26175 8.2003 8.61728 7.84256C9.15059 8.77989 7.30069 9.0988 6.5313 8.05887C6.65073 9.03502 6.97571 10.2247 7.24792 10.7877H6.82016C6.82016 10.7877 7.07571 12.923 8.57284 13.6468C8.45063 13.8243 8.0451 13.9463 7.51735 13.8187C8.48951 14.6562 9.45335 13.8464 10.2811 15.3966H10.2866ZM-0.00165939 15.355V1.94128H50.001V15.3523C49.551 15.0833 48.0428 14.0794 48.0428 12.8037C46.4817 13.0755 45.1263 11.5031 46.8762 9.32897C48.6261 7.15482 47.2706 5.58521 45.7096 5.85421C45.7096 4.57856 44.2013 3.57745 43.7513 3.30568C43.3014 3.57745 41.7931 4.57856 41.7931 5.85421C40.2321 5.58521 38.8766 7.15482 40.6265 9.32897C42.3764 11.5031 41.0209 13.0727 39.4599 12.8037C39.4599 14.0794 37.9517 15.0805 37.5017 15.3523C37.0517 15.0833 35.5435 14.0794 35.5435 12.8037C33.9825 13.0755 32.627 11.5031 34.3769 9.32897C36.1268 7.15482 34.7713 5.58521 33.2103 5.85421C33.2103 4.57856 31.702 3.57745 31.2521 3.30568C30.8021 3.57745 29.2939 4.57856 29.2939 5.85421C27.7328 5.58521 26.3774 7.15482 28.1273 9.32897C29.8772 11.5031 28.5217 13.0727 26.9607 12.8037C26.9607 14.0794 25.4524 15.0805 25.0024 15.3523C24.5525 15.0833 23.0442 14.0794 23.0442 12.8037C21.4832 13.0755 20.1277 11.5031 21.8776 9.32897C23.6275 7.15482 22.272 5.58521 20.711 5.85421C20.711 4.57856 19.2028 3.57745 18.7528 3.30568C18.3028 3.57745 16.7946 4.57856 16.7946 5.85421C15.2336 5.58521 13.8781 7.15482 15.628 9.32897C17.3779 11.5031 16.0224 13.0727 14.4614 12.8037C14.4614 14.0794 12.9531 15.0805 12.5032 15.3523C12.0532 15.0833 10.5449 14.0794 10.5449 12.8037C8.98393 13.0755 7.62845 11.5031 9.37835 9.32897C11.1282 7.15482 9.77277 5.58521 8.21175 5.85421C8.21175 4.57856 6.70351 3.57745 6.25353 3.30568C5.80356 3.57745 4.29531 4.57856 4.29531 5.85421C2.73429 5.58521 1.37882 7.15482 3.12872 9.32897C4.87861 11.5031 3.52314 13.0727 1.96212 12.8037C1.96212 14.0794 0.453873 15.0805 0.00389862 15.3523L-0.00165939 15.355ZM-0.00165939 16.7804H50.001V18.0616H0.00112152V16.7804H-0.00165939Z" fill="#020C4C"/>
<path d="M33.7993 3.32506H36.3658C36.6519 3.15035 37.0241 2.98673 37.5019 2.84253C37.9796 2.98951 38.3518 3.15035 38.6379 3.32506H41.2044C41.2044 3.32506 40.2795 4.56743 39.599 4.42323C39.599 5.90964 38.0963 6.39494 38.0963 7.43488C38.999 7.67059 38.924 8.97398 38.0963 9.30676C38.0963 9.8392 39.0101 10.6462 39.7406 10.6462C39.7406 11.1731 38.9712 11.8026 38.3435 11.6362C38.3435 12.5513 37.7518 13.0921 37.4991 13.2807C37.2463 13.0893 36.6547 12.5513 36.6547 11.6362C36.0297 11.8026 35.2603 11.1731 35.2603 10.6462C35.9908 10.6462 36.9047 9.8392 36.9047 9.30676C36.0769 8.97398 36.0019 7.67059 36.9047 7.43488C36.9047 6.39494 35.402 5.90687 35.402 4.42323C34.7215 4.56743 33.7965 3.32506 33.7965 3.32506H33.7993ZM36.3519 4.52306C36.3519 5.11374 37.1352 5.9762 37.5019 6.57242C37.8685 5.9762 38.6518 5.11652 38.6518 4.52306C38.6518 4.04053 38.0685 3.76322 37.5019 3.72994C36.9324 3.76322 36.3519 4.04053 36.3519 4.52306ZM21.3 3.32506H23.8665C24.1526 3.15035 24.5248 2.98673 25.0026 2.84253C25.4803 2.98951 25.8525 3.15035 26.1386 3.32506H28.7052C28.7052 3.32506 27.7802 4.56743 27.0997 4.42323C27.0997 5.90964 25.597 6.39494 25.597 7.43488C26.4997 7.67059 26.4247 8.97398 25.597 9.30676C25.597 9.8392 26.5108 10.6462 27.2413 10.6462C27.2413 11.1731 26.4719 11.8026 25.8442 11.6362C25.8442 12.5513 25.2526 13.0921 24.9998 13.2807C24.747 13.0893 24.1554 12.5513 24.1554 11.6362C23.5305 11.8026 22.7611 11.1731 22.7611 10.6462C23.4916 10.6462 24.4054 9.8392 24.4054 9.30676C23.5777 8.97398 23.5027 7.67059 24.4054 7.43488C24.4054 6.39494 22.9027 5.90687 22.9027 4.42323C22.2222 4.56743 21.2973 3.32506 21.2973 3.32506H21.3ZM23.8527 4.52306C23.8527 5.11374 24.6359 5.9762 25.0026 6.57242C25.3692 5.9762 26.1525 5.11652 26.1525 4.52306C26.1525 4.04053 25.5692 3.76322 25.0026 3.72994C24.4332 3.76322 23.8527 4.04053 23.8527 4.52306ZM47.9068 4.42323C47.9068 5.90964 49.4095 6.39494 49.4095 7.43488C48.5068 7.67059 48.5818 8.97398 49.4095 9.30676C49.4095 9.8392 48.4929 10.6462 47.7651 10.6462C47.7651 11.1731 48.5345 11.8026 49.1595 11.6362C49.1595 12.5513 49.7511 13.0921 50.0039 13.2807V6.5752C49.6373 5.97897 48.854 5.11929 48.854 4.52583C48.854 4.04331 49.4373 3.76599 50.0039 3.73271V2.8453C49.5262 2.99228 49.154 3.15312 48.8679 3.32783H46.2986C46.2986 3.32783 47.2235 4.57021 47.904 4.426L47.9068 4.42323ZM0.00405121 13.2835C0.256813 13.0921 0.848446 12.5541 0.848446 11.639C1.47341 11.8054 2.24559 11.1759 2.24559 10.649C1.51508 10.649 0.601238 9.84197 0.601238 9.30953C1.42897 8.97675 1.50396 7.67337 0.601238 7.43765C0.601238 6.39772 2.10393 5.90964 2.10393 4.426C2.78444 4.57021 3.70939 3.32783 3.70939 3.32783H1.14288C0.856781 3.15312 0.484577 2.98951 0.00682831 2.8453V3.73271C0.576241 3.76599 1.15676 4.04331 1.15676 4.52583C1.15676 5.11652 0.373474 5.97897 0.00682831 6.5752V13.2862L0.00405121 13.2835ZM8.80076 3.32506H11.3673C11.6534 3.15035 12.0256 2.98673 12.5033 2.84253C12.9811 2.98951 13.3533 3.15035 13.6394 3.32506H16.2059C16.2059 3.32506 15.2809 4.56743 14.6004 4.42323C14.6004 5.90964 13.0977 6.39494 13.0977 7.43488C14.0005 7.67059 13.9255 8.97398 13.0977 9.30676C13.0977 9.8392 14.0116 10.6462 14.7421 10.6462C14.7421 11.1731 13.9727 11.8026 13.3449 11.6362C13.3449 12.5513 12.7533 13.0921 12.5005 13.2807C12.2478 13.0893 11.6561 12.5513 11.6561 11.6362C11.0312 11.8026 10.2618 11.1731 10.2618 10.6462C10.9923 10.6462 11.9061 9.8392 11.9061 9.30676C11.0784 8.97398 11.0034 7.67059 11.9061 7.43488C11.9061 6.39494 10.4034 5.90687 10.4034 4.42323C9.72293 4.56743 8.79798 3.32506 8.79798 3.32506H8.80076ZM11.3534 4.52306C11.3534 5.11374 12.1367 5.9762 12.5033 6.57242C12.87 5.9762 13.6533 5.11652 13.6533 4.52306C13.6533 4.04053 13.07 3.76322 12.5033 3.72994C11.9339 3.76322 11.3534 4.04053 11.3534 4.52306Z" fill="white"/>
<path d="M30.2605 13.73C30.2688 14.2985 30.5521 15.0139 31.2521 15.5436C31.952 15.0139 32.2353 14.2985 32.2437 13.73C31.9326 13.6107 31.5909 13.4055 31.2521 13.081C30.9132 13.4055 30.5716 13.6107 30.2605 13.73ZM31.2521 5.08326C32.8825 6.27294 32.3381 8.10323 31.2521 7.30456C30.166 8.10323 29.6216 6.27294 31.2521 5.08326ZM25.0024 5.78209C24.7441 5.3994 24.1636 4.41493 25.0024 4.34005C25.8413 4.41493 25.2608 5.40217 25.0024 5.78209ZM12.5032 5.78209C12.2449 5.3994 11.6643 4.41493 12.5032 4.34005C13.342 4.41493 12.7615 5.40217 12.5032 5.78209ZM18.7528 5.08326C20.3833 6.27294 19.8389 8.10323 18.7528 7.30456C17.6668 8.10323 17.1223 6.27294 18.7528 5.08326ZM18.7528 13.0838C19.0917 13.4083 19.4333 13.6135 19.7444 13.7327C19.7361 14.3012 19.4528 15.0167 18.7528 15.5464C18.0528 15.0167 17.7695 14.3012 17.7612 13.7327C18.0723 13.6135 18.4139 13.4083 18.7528 13.0838ZM37.5017 5.77932C37.2434 5.39663 36.6629 4.41216 37.5017 4.33728C38.3405 4.41216 37.76 5.3994 37.5017 5.77932ZM43.7513 13.081C44.0902 13.4055 44.4319 13.6107 44.743 13.73C44.7346 14.2985 44.4513 15.0139 43.7513 15.5436C43.0514 15.0139 42.7681 14.2985 42.7597 13.73C43.0708 13.6107 43.4125 13.4055 43.7513 13.081ZM50.001 5.77932C49.7427 5.39663 49.1621 4.41216 50.001 4.33728V5.77932ZM43.7513 5.08049C45.3818 6.27017 44.8374 8.10045 43.7513 7.30178C42.6653 8.10045 42.1209 6.27017 43.7513 5.08049ZM0.00112152 5.77932V4.33728C0.839962 4.41216 0.259441 5.3994 0.00112152 5.77932ZM6.25076 5.08049C7.88122 6.27017 7.3368 8.10045 6.25076 7.30178C5.16471 8.10045 4.6203 6.27017 6.25076 5.08049ZM6.25076 13.081C6.58963 13.4055 6.93127 13.6107 7.24236 13.73C7.23403 14.2985 6.95071 15.0139 6.25076 15.5436C5.5508 15.0139 5.26748 14.2985 5.25915 13.73C5.57024 13.6107 5.91189 13.4055 6.25076 13.081Z" fill="#FFA734"/>
</g>
<defs>
<clipPath id="clip0_76_3545">
<rect width="49.9999" height="20" fill="white" transform="matrix(-1 0 0 1 50.001 0)"/>
</clipPath>
</defs>
</svg>
