<svg width="800" height="231" viewBox="0 0 800 231" fill="none" xmlns="http://www.w3.org/2000/svg">
<path fill-rule="evenodd" clip-rule="evenodd" d="M112.965 67.6311C117.408 67.0745 123.221 68.2702 126.788 69.7958C132.251 72.1357 137.158 76.197 140.343 80.7532C148.229 92.0301 149.084 106.585 142.064 118.357C140.199 121.511 137.385 124.84 134.498 127.067C129.272 131.097 124.799 133.375 117.233 133.932C105.811 134.746 96.1115 129.551 89.5659 120.872C85.6798 115.697 83.7522 109.739 83.1646 102.905C82.3709 93.968 85.587 84.8145 91.4007 78.5679C95.0188 74.6199 95.3796 74.2179 100.317 71.177C104.317 68.7237 108.615 68.198 112.965 67.6414V67.6311ZM111.945 140.065C112.151 141.261 112.089 175.886 112.006 176.329C111.893 176.854 111.161 177.731 110.811 178.524C109.728 180.916 108.244 185.214 106.017 187.028C105.698 185.101 106.11 171.164 106.079 167.742C106.079 164.268 106.172 162.042 104.646 159.382C101.379 153.651 93.3695 149.044 87.1126 147.281C84.3397 146.487 82.206 146.023 79.1033 145.559C77.7014 145.353 76.2686 145.147 74.7739 144.972C73.2793 144.828 71.8259 144.477 70.3621 144.302C71.094 146.549 74.4853 150.229 76.2892 151.755C84.0924 158.207 97.2969 154.971 98.874 162.3C100.276 168.701 99.0802 174.69 99.0183 181.029C98.9874 185.503 98.9874 189.09 96.565 191.811C91.8336 197.099 82.7729 188.42 77.4849 187.482C76.8458 190.255 74.0111 192.564 71.3208 193.533C65.0947 195.697 56.5391 193.739 50.344 192.1C49.1998 191.811 41.2524 189.678 40.8813 189.41C40.4999 189.059 40.2628 186.369 40.1494 185.812C38.6548 178.39 34.6244 167.722 39.3042 160.454C38.9846 160.011 38.6032 159.836 38.1394 159.372C36.7684 158.032 35.9438 156.331 34.6656 155.692C32.7071 156.888 31.3361 161.97 30.9238 164.402C29.9342 170.773 31.8 179.864 32.8823 186.317C33.5008 189.915 33.9337 193.45 34.5522 197.037C40.8091 197.45 40.335 196.924 47.1485 198.501C54.158 200.171 63.8887 204.109 70.3827 202.119C73.6297 201.13 77.5983 198.439 78.6497 196.306C82.5358 196.749 96.2351 204.521 106.265 196.976C106.904 196.512 107.636 195.955 108.11 195.46C108.697 194.821 109.337 194.296 109.862 193.646C111.439 191.688 114.336 187.977 115.356 185.255C115.913 185.575 115.851 185.699 116.408 186.369C118.511 189.059 120.995 192.976 123.16 194.811C125.788 197.058 131.519 198.986 135.838 199.573V192.615C134.993 191.914 131.715 191.007 131.076 187.039C130.633 184.204 130.262 169.979 130.55 167.144C130.963 163.145 130.643 161.444 133.117 159.228C134.869 157.62 138.147 157.238 140.807 156.63C143.899 155.898 146.301 155.404 149.043 154.352C152.135 153.156 153.31 152.218 155.3 150.322C156.588 149.064 158.805 146.26 159.743 144.395C158.166 144.188 145.713 146.384 143.209 147.198C136.457 149.394 129.272 153.074 125.706 158.919C123.984 161.784 124.036 163.155 124.067 166.979C124.098 169.721 124.592 184.895 123.83 186.09C123.799 186.09 123.737 185.998 123.716 186.029L123.335 185.647C121.232 183.08 120.418 177.349 118.016 175.834V140.045C123.242 139.869 128.911 137.911 132.684 135.746C134.725 134.602 136.57 133.324 138.261 131.943C155.619 117.769 157.784 91.8549 143.868 75.1972C141.59 72.4759 141.621 72.5377 139.189 70.3421C136.642 68.0331 133.787 66.1364 130.602 64.6727C121.253 60.3227 108.78 60.1681 99.4512 64.7036C95.5342 66.6003 94.0189 67.7754 90.9472 70.2287L88.4629 72.5996C82.2369 79.5574 77.856 86.3607 77.186 99.1632C76.7221 107.348 79.0518 115.202 82.9172 121.717C83.5048 122.707 84.2057 123.614 84.8139 124.49C85.2778 125.108 85.3705 125.335 85.8344 125.923C86.2467 126.448 86.5353 126.686 86.9786 127.211C88.968 129.603 91.8027 132.066 94.4003 133.839C97.2969 135.86 100.358 137.375 103.956 138.54C107.636 139.735 108.924 139.529 111.965 140.055L111.945 140.065Z" fill="#4C89C5"/>
<path fill-rule="evenodd" clip-rule="evenodd" d="M154.886 159.299C154.886 164.381 160.236 172.36 155.298 182.554C151.855 189.687 145.856 192.192 138.238 193.223C137.888 200.738 140.279 205.696 131.229 211.107C126.405 214.004 121.179 216.045 116.354 219.849C115.891 220.199 115.829 220.343 115.385 220.611C114.54 220.23 111.675 217.632 109.51 216.313C101.624 211.489 99.5215 213.097 95.0478 205.5C94.4293 204.418 93.883 203.108 93.2955 202.253C91.1308 202.139 88.8836 201.758 86.8633 202.191C87.1828 210.953 93.5222 215.664 98.7896 218.962C101.8 220.828 104.809 222.436 107.675 224.312C109.046 225.25 110.51 226.332 111.706 227.404L115.561 230.796C117.756 228.951 118.478 226.992 123.395 223.693C129.827 219.364 138.176 217.21 141.681 211.623C144.021 207.85 144.104 204.263 144.402 199.202C150.309 197.181 154.545 196.656 159.009 190.759C162.431 186.255 164.297 180.039 164.328 172.793L163.101 163.062C166.369 163.825 167.08 164.814 171.193 164.845C174.997 164.845 179.058 164.258 182.387 163.175C185.923 162.062 188.376 160.433 189.902 157.795C189.582 156.774 187.912 155.516 186.892 154.846C183.47 152.682 183.449 155.815 178.676 157.042C173.564 158.361 167.338 156.63 162.493 155.434C158.576 154.496 154.896 154.815 154.896 159.289L154.886 159.299Z" fill="white"/>
<path fill-rule="evenodd" clip-rule="evenodd" d="M0 114.913C0.268008 116.057 2.30899 117.222 3.7418 118.48C12.5654 126.283 15.8124 144.013 29.4293 145.012C34.4287 145.394 31.1816 145.074 36.0058 153.249C43.108 165.288 54.2097 166.515 67.7647 163.299C67.8574 166.597 66.27 170.607 66.9194 178.029C67.239 181.74 68.6099 187.203 71.5374 189.306C72.8259 189.017 76.3925 185.708 75.9183 183.987C74.6607 179.287 72.5888 176.039 73.6093 169.762C74.2278 165.845 78.8148 156.588 72.4136 155.475C66.4556 154.424 64.4352 160.031 56.0239 158.897C51.9935 158.341 49.334 156.3 47.0559 154.393C44.9222 152.579 42.9946 149.837 41.2732 146.878C39.428 143.786 38.6755 140.92 37.4489 137.24C33.1195 137.354 30.8209 138.848 26.5224 137.096C22.6673 135.519 22.1106 133.942 20.0387 130.839C17.0906 126.427 16.9463 124.293 12.8231 118.975C12.1531 118.067 10.4832 116.171 10.0812 115.295C10.4935 114.676 11.4006 113.779 12.3593 112.254C15.0497 108.048 17.472 103.368 20.2243 98.9564C23.2342 94.0807 25.1618 94.1632 29.6664 92.5036C29.9035 90.1328 30.7487 87.597 30.5425 85.1437C24.3165 84.8551 19.2347 88.7618 15.9877 93.0602C14.9363 94.4621 9.23595 104.286 7.40113 107.11C6.38064 108.625 5.36015 110.089 4.24689 111.46C3.65933 112.161 3.13363 112.779 2.46361 113.419C1.41219 114.439 1.52558 114.264 0.0412319 114.913H0Z" fill="white"/>
<path fill-rule="evenodd" clip-rule="evenodd" d="M66.6827 56.4774C66.6827 58.8483 67.2703 63.3425 67.528 65.9195C61.7968 65.1052 60.9515 63.4044 53.035 64.7754C50.7569 65.1877 48.8293 65.7958 46.9326 66.7029C45.4689 67.373 42.6961 68.981 41.9951 69.95C43.1393 71.7642 43.9846 72.7537 45.9121 73.867C47.077 74.5679 47.5202 74.0422 48.7159 73.5474C54.9419 70.8261 57.2819 70.1252 64.9613 72.6403C66.8889 73.2588 69.3422 74.2484 71.5687 74.1041C73.7849 73.9598 75.5682 72.3826 75.8362 70.3004C76.3929 65.7958 70.5173 59.2812 74.8673 48.7361C77.3824 42.6029 82.7838 39.9125 88.9171 38.4488C94.6174 37.1087 93.2464 38.9436 93.1227 32.4908C93.0299 27.6666 95.4008 23.9042 98.5241 21.0901C100.194 19.5749 102.936 17.9359 105.307 16.7917C107.729 15.6269 110.306 14.1632 112.46 12.7304C116.058 10.3904 114.099 9.51427 122.779 15.1527C126.17 17.3689 130.314 18.6574 133.293 21.3169C135.458 23.2445 136.128 25.0896 137.21 28.5634L138.962 28.852C139.694 28.883 140.457 28.9139 141.158 29.0273C142.498 29.2025 143.611 29.8725 144.549 30.0168C144.456 25.636 143.116 21.5746 141.158 18.709C137.911 13.9467 133.004 12.9262 127.778 9.96782C125.232 8.56593 125.057 7.92684 124.511 7.62791C122.026 6.25695 121.645 6.28787 119.13 3.80365C118.192 2.89654 116.182 0.505091 115.388 0C114.45 0.494783 114.512 0.845254 113.842 1.72143C113.378 2.33991 112.728 2.97901 112.234 3.50471C102.915 13.1427 91.5456 13.4107 87.577 24.7185C87.0513 26.2338 86.4637 28.2851 86.2885 29.9756C86.0205 32.1712 86.907 31.728 82.6704 32.8928C72.4449 35.7275 66.6827 44.4686 66.6827 56.4465V56.4774Z" fill="white"/>
<path fill-rule="evenodd" clip-rule="evenodd" d="M176.63 70.2902C183.145 70.2902 185.897 73.4444 188.402 77.4439C192.927 84.5977 191.618 89.1023 193.309 91.3803C198.184 91.4422 200.205 90.1846 204.647 92.5245C207.162 93.8439 209.441 96.8539 211.162 99.101C212.914 101.41 219.635 112.192 220.955 115.285C220.367 116.161 217.976 117.181 215.43 121.861C213.76 124.984 213.182 127.118 210.925 129.52C208.028 132.592 205.781 133.818 202.039 135.828C201.101 136.323 201.308 136.88 201.132 138.075C200.895 139.477 200.339 142.23 200.37 143.508C211.853 143.446 217.604 131.788 224.068 123.376C224.624 122.675 225.088 122.057 225.614 121.387C226.232 120.624 226.758 120.067 227.335 119.366L229.995 116.563C230.438 116.099 230.613 116.15 230.902 115.656C230.057 114.078 228.706 112.388 227.655 110.862C225.232 107.296 219.821 100.08 217.254 97.1013C215.357 94.9057 213.718 92.8028 211.646 90.7309C209.688 88.8033 207.523 86.4325 205.132 85.0925C201.74 83.1958 198.937 84.2987 198.205 83.9277C197.504 83.1339 197.123 81.4125 196.69 80.2168C195.401 76.743 193.298 72.3827 190.938 69.8779C186.845 65.4661 182.928 63.2498 176.063 63.2189C169.435 63.188 166.951 64.8579 162.209 65.8165C162.653 60.9615 163.704 56.8486 163.055 51.674C162.56 47.4993 160.746 42.9637 158.643 40.3352C157.53 40.6032 155.375 43.2524 154.788 44.5718C154.087 46.0871 155.726 49.2516 156.282 50.736C158.148 55.6116 157.251 59.941 156.251 64.9404C155.087 70.8674 156.54 74.1763 162.972 72.9806C167.497 72.1044 171.682 70.2902 176.62 70.2902H176.63Z" fill="white"/>
<path fill-rule="evenodd" clip-rule="evenodd" d="M33.6333 34.3254C34.2724 46.4785 33.0766 46.3033 30.7986 57.2916C29.9533 61.322 29.3967 64.9813 30.5306 69.0117C31.3449 71.9083 33.4786 75.9902 35.2104 77.4024C35.097 78.7425 34.0147 81.2576 33.5199 82.5152C31.3243 88.2671 30.9738 94.4622 33.0766 100.193C34.3342 103.616 36.5504 106.213 38.6326 108.285C39.6222 109.275 41.1478 110.501 42.3744 111.501C43.6938 112.553 44.972 113.573 46.2296 114.542C45.642 115.243 44.4463 115.655 43.4877 116.088C36.7978 119.304 32.0871 127.128 31.6232 134.849L38.3131 134.354C40.4159 127.077 43.8691 123.922 50.4146 121.119C53.0741 119.974 56.8159 118.14 56.6097 114.542C56.2593 109.141 51.2908 110.038 46.0647 106.131C38.0245 100.08 36.0969 94.2663 40.2201 84.5046C40.8076 83.1337 41.6529 81.4638 42.3229 80.2371C43.0238 78.9177 43.9928 77.4024 44.57 76.1449C43.6011 74.8048 40.5087 72.8979 38.5811 70.3312C34.6022 65.0432 37.0349 57.24 38.7563 51.1892L41.1272 41.6028C46.7347 40.4586 51.0022 38.7681 56.2077 37.3662C58.5476 36.7271 61.7019 35.8716 64.3304 36.2014C67.8661 36.6447 69.5566 38.6857 70.9894 39.2114C71.9274 38.397 72.3088 37.5209 73.2056 36.7581C74.0199 36.0571 74.927 35.3253 75.7207 34.5625C75.1332 32.5421 70.34 30.2331 67.5981 29.6868C60.4134 28.254 52.2907 31.8205 45.5699 33.4904C40.8076 34.6862 38.5605 34.4594 33.6436 34.3357L33.6333 34.3254Z" fill="#4C89C5"/>
<path fill-rule="evenodd" clip-rule="evenodd" d="M187.443 152.435C190.134 153.311 192.7 155.97 193.896 158.341C198.164 166.608 191.123 179.091 190.505 190.048C183.464 190.605 175.249 194.924 167.075 194.697C162.395 194.553 161.642 192.77 160.292 192.1C159.942 192.563 157.725 194.409 156.468 195.924C156.117 196.336 156.231 196.13 156.004 196.594C157.581 198.408 160.972 200.016 164.127 200.686C167.868 201.48 171.899 201.212 175.702 200.717C182.836 199.779 189.319 197.852 196.597 197.068C196.947 195.223 196.978 192.862 197.329 190.842C198.267 185.028 199.926 179.122 200.926 173.308C202.091 166.443 202.472 158.846 198.06 153.084C197.473 152.29 196.947 151.826 196.422 151.064C198.617 141.333 202.204 128.736 192.803 120.119C190.762 118.191 187.979 116.14 184.712 114.893C185.876 113.378 193.803 108.76 197.04 100.843C197.658 99.3278 198.823 95.6169 198.73 93.8027C197.442 93.8955 194.03 94.0707 192.948 94.3284C192.01 94.5655 192.659 94.2666 191.958 96.524C191.69 97.4002 191.432 98.1939 191.051 99.0083C187.34 107.275 180.238 107.832 176.939 111.11C174.022 114.006 174.342 117.243 177.816 119.377C179.187 120.222 180.733 120.841 182.227 121.542C186.258 123.387 190.268 127.118 191.721 131.705C193.473 137.23 191.865 142.9 189.618 147.951C189.062 149.177 187.753 151.393 187.454 152.455L187.443 152.435Z" fill="#4C89C5"/>
<path fill-rule="evenodd" clip-rule="evenodd" d="M152.082 34.8816C147.289 33.4488 141.62 27.2846 130.106 31.8407C126.508 33.2735 123.849 35.2836 121.519 37.3039C120.406 38.2729 119.21 39.6954 118.221 41.1282C117.2 42.6435 116.582 44.0763 115.767 45.7462C115.097 45.2514 114.685 43.8186 114.252 43.0043C112.675 40.1077 110.655 38.0667 107.995 36.1391C104.666 33.7683 100.398 31.4902 95.0483 31.4387C95.0483 33.5106 95.0483 35.5928 95.6359 37.4586C95.9554 38.5718 96.1616 38.6028 97.2439 39.0048C101.336 40.52 105.078 41.2004 107.851 44.9112C109.871 47.6016 110.716 50.6631 112.85 52.8278C116.798 56.7757 118.375 53.4669 120.097 50.5188C123.189 45.138 126.498 39.3862 133.476 37.8915C137.394 37.0463 141.28 37.7781 144.722 38.9429C146.124 39.4068 148.32 40.2314 149.248 40.9633C150.299 41.757 151.526 43.6537 153.227 43.6227C155.618 42.0456 155.999 38.3038 159.422 36.469C162.751 34.7166 166.957 35.0362 170.822 35.9124C177.976 37.5513 184.295 40.7674 191.892 41.5818C192.479 43.128 192.531 49.2715 192.83 51.5496C193.242 54.7038 194.149 57.6004 194.551 60.6618C195.077 64.4655 194.407 66.7435 193.788 70.2792C193.582 71.5986 194.077 71.4234 195.572 73.7014C196.365 74.8662 196.685 75.8661 197.355 77.2061C201.736 68.6402 200.128 66.8672 199.375 57.0437C199.087 53.2195 198.881 49.7972 198.355 46.0245C197.912 42.6332 198.448 37.5204 197.736 34.6239C182.955 33.9848 161.504 23.2232 153.618 32.6963C153.124 33.2838 152.649 34.3043 152.103 34.8919L152.082 34.8816Z" fill="#4C89C5"/>
<path fill-rule="evenodd" clip-rule="evenodd" d="M141.074 110.553L134.796 110.584C133.395 114.439 129.271 118.47 125.736 120.573C118.108 125.16 108.264 124.345 101.223 118.181C100.904 117.893 100.78 117.893 100.492 117.625C95.8426 113.419 93.0388 107.111 93.1832 100.678C93.3893 91.8856 98.1516 83.5877 106.068 79.9077C112.377 77.0112 120.097 77.7431 125.561 80.753C126.437 81.2169 127.55 82.0415 128.282 82.7115C129.89 84.1134 128.777 82.8867 130.797 85.0823C133.25 87.7418 133.601 89.3189 134.683 90.927C135.673 91.1022 140.239 91.1331 141.167 90.896C138.951 86.4224 140.291 87.8552 136.724 82.7115C135.466 80.8973 133.013 78.444 131.23 77.1555C130.879 76.9184 130.642 76.6916 130.261 76.4236C122.283 70.7543 109.253 70.0533 100.718 75.8979C100.224 76.2484 100.275 76.1659 99.7803 76.4546L97.1208 78.6502C95.956 79.7325 96.4817 79.0006 95.5437 80.2582C95.0798 80.8767 93.7913 81.9281 92.5956 83.6805C89.0909 88.886 87.1633 93.9988 87.1942 100.689C87.2251 107.348 89.6475 114.769 93.8532 119.593C94.9046 120.789 95.6365 121.634 96.9765 122.81L99.5432 124.943C107.954 131.52 121.396 131.314 130.168 125.232C132.683 123.51 133.992 122.109 135.868 119.851C137.714 117.656 140.456 113.893 141.074 110.564V110.553Z" fill="white"/>
<path fill-rule="evenodd" clip-rule="evenodd" d="M105.099 94.1115C105.387 92.9158 107.841 90.6893 108.902 90.0811C110.655 89.0297 112.551 88.3906 115.005 88.3906C119.128 88.3906 123.653 91.1635 124.735 94.1425C123.241 94.3795 106.181 94.3795 105.099 94.1115ZM125.323 106.522C123.808 108.687 123.334 110.12 120.324 111.779C115.355 114.521 110.799 113.15 106.851 109.759C104.686 107.893 102.584 103.853 103.171 100.667L132.714 100.636C132.827 99.3789 132.477 97.8018 132.25 96.6885C131.343 92.452 128.714 87.9783 125.24 85.5559C122.292 83.484 119.076 82.0203 115.015 82.1646C112.294 82.2574 109.758 82.6284 107.593 83.7108C97.0172 88.9163 94.1825 102.471 100.171 111.182C106.078 119.717 116.881 121.995 125.034 116.119C127.519 114.336 129.889 111.182 131.137 108.347C131.951 106.533 132.301 106.45 129.992 106.481C128.415 106.512 126.869 106.419 125.313 106.512L125.323 106.522Z" fill="white"/>
<path fill-rule="evenodd" clip-rule="evenodd" d="M146.221 145.271C147.015 145.003 147.273 144.478 147.767 143.756C148.118 143.199 148.561 142.21 148.819 141.591C150.252 138.293 152.21 128.243 150.045 126.129C147.128 127.356 144.726 141.241 146.221 145.271Z" fill="#4C89C5"/>
<path fill-rule="evenodd" clip-rule="evenodd" d="M83.7119 145.24C85.289 143.632 83.6192 130.284 80.7638 126.686C80.2691 126.068 80.5268 126.274 79.8877 126.129C77.7848 129.222 80.5061 144.096 83.7119 145.24Z" fill="#4C89C5"/>
<path fill-rule="evenodd" clip-rule="evenodd" d="M63.8482 109.275C63.642 111.996 65.8067 118.913 67.3838 121.665C68.0229 122.747 68.7857 124.386 70.1257 124.5C70.5071 119.562 68.6311 111.47 66.0025 107.347C65.4768 106.502 65.3016 105.945 64.1883 105.884L63.8379 109.275H63.8482Z" fill="#4C89C5"/>
<path fill-rule="evenodd" clip-rule="evenodd" d="M158.102 133.055C159.617 133.199 161.493 131.766 162.575 130.839C163.802 129.756 164.915 128.705 165.936 127.447C167.193 125.932 170.76 121.396 170.585 118.531C167.286 118.036 158.4 129.395 158.112 133.055H158.102Z" fill="#4C89C5"/>
<path fill-rule="evenodd" clip-rule="evenodd" d="M159.982 124.438C160.92 124.5 161.27 123.85 161.703 123.211C163.043 121.315 164.095 119.088 164.744 116.697C165.734 113.079 166.703 109.862 165.795 105.884C162.579 106.234 158.992 121.139 159.982 124.438Z" fill="#4C89C5"/>
<path fill-rule="evenodd" clip-rule="evenodd" d="M153.403 135.828C154.743 135.385 156.094 131.323 156.588 129.664C157.403 126.922 158.403 119.088 156.795 116.634C154.867 116.603 153.578 123.737 153.372 125.025C153.053 127.045 152.207 134.23 153.403 135.838V135.828Z" fill="#4C89C5"/>
<path fill-rule="evenodd" clip-rule="evenodd" d="M76.5254 135.859C77.4634 135.127 77.3191 131.798 77.2573 130.715C77.1439 128.757 76.9893 127.211 76.7006 125.283C76.4636 123.675 75.3297 117.222 73.433 116.542C71.2993 119.201 72.763 128.2 74.2783 132.024C75.072 134.014 75.2472 134.395 76.5254 135.849V135.859Z" fill="#4C89C5"/>
<path fill-rule="evenodd" clip-rule="evenodd" d="M71.9083 133.087C71.4444 128.994 62.8166 118.181 59.4047 118.48C59.1367 122.83 68.3211 133.416 71.9083 133.087Z" fill="#4C89C5"/>
<path fill-rule="evenodd" clip-rule="evenodd" d="M150.044 143.024C156.301 142.962 164.094 138.519 166.733 133.819C161.445 133.582 155.136 137.561 151.332 140.952C150.745 141.478 150.013 141.942 150.044 143.024Z" fill="#4C89C5"/>
<path fill-rule="evenodd" clip-rule="evenodd" d="M79.5991 142.055C80.3 140.241 71.5898 135.448 69.1674 134.345C67.2707 133.499 66.0441 133.438 63.7866 133.231C63.9928 134.169 64.4566 134.633 64.9308 135.19C67.9407 138.808 76.8262 143.168 79.5991 142.055Z" fill="#4C89C5"/>
<path fill-rule="evenodd" clip-rule="evenodd" d="M402.617 102.904C399.493 102.904 398.617 103.172 399.751 99.8634C400.39 97.9977 400.978 96.2659 401.565 94.4621C402.709 90.9883 404.338 86.9785 405.214 83.6799C405.503 83.9685 405.451 83.8861 405.771 84.3808C405.802 84.4736 405.864 84.5561 405.915 84.6179C405.946 84.7107 405.977 84.7932 406.029 84.8859L407.255 88.4525C412.894 105.255 414.089 102.884 402.606 102.915L402.617 102.904ZM404.019 73.9492C403.524 79.2372 399.864 87.298 397.999 92.2664C396.535 96.0907 388.474 119.882 385.608 122.397C382.867 124.788 379.269 122.634 379.527 125.644C379.733 127.953 383.763 126.932 387.186 126.808C390.577 126.695 396.123 127.334 399.019 126.901C399.833 125.118 399.689 124.128 397.679 123.747C395.69 123.335 394.783 123.397 393.061 122.52C392.824 120.129 395.164 114.253 396.154 111.326C397.7 106.77 395.803 107.12 410.853 107.502C412.718 107.533 413.337 107.594 413.894 108.873C414.739 110.769 417.986 121.118 417.604 122.84C415.502 123.922 411.997 123.19 412.203 125.644C412.378 127.839 415.1 126.932 419.068 126.839C424.768 126.695 430.294 126.953 435.901 126.984C438.643 127.015 437.19 126.345 438.88 126.747C440.282 127.066 455.971 126.778 459.249 126.891C460.568 126.922 462.114 127.066 463.372 127.035C465.619 127.035 465.33 126.54 465.042 124.201C459.465 121.892 457.764 125.953 457.62 116.078C457.558 113.181 457.27 102.203 457.888 100.265C458.682 99.1522 475.948 99.6264 479.483 99.647L481.617 99.915C483.637 100.791 482.586 114.233 482.524 117.098C482.462 119.902 482.431 122.417 480.184 123.293C477.793 124.231 474.69 122.881 476.154 126.912C478.463 127.2 491.966 126.705 497.275 126.881C500.666 126.994 502.243 128.138 501.718 124.283C497.625 121.768 494.997 126.53 494.883 115.016C494.852 109.872 494.327 77.9384 495.553 75.1861C496.636 72.8153 499.233 73.8152 501.285 72.7019L501.429 70.2177C499.47 69.6301 489.771 70.1868 487.029 70.1558C476.36 70.094 474.7 68.5787 475.659 72.8977C481.679 74.011 482.442 73.3101 482.524 80.3504C482.586 82.7728 483.019 93.0602 482.174 94.3177C481.679 94.8434 482.638 94.4311 481.328 94.8744C480.834 95.0496 458.744 95.5135 457.919 94.4311C457.3 92.586 457.568 83.3603 457.63 80.7009C457.806 70.1558 461.248 75.0006 463.681 72.7534C464.269 72.2277 464.351 70.6506 463.588 70.1558C462.97 69.7435 461.073 70.0115 460.259 70.0424C453.651 70.3104 443.045 69.692 438.633 70.0424L438.519 72.8771C444.508 74.1656 445.302 72.3514 445.302 82.4326V115.016C445.271 127.613 442.148 121.18 438.231 124.716C437.53 123.376 438.643 124.221 434.664 123.458C432.974 123.139 432.149 122.52 431.417 121.562C428.902 118.346 414.234 71.6505 412.688 69.022C409.327 68.7333 409.791 72.5267 404.039 73.9285L404.019 73.9492Z" fill="white"/>
<path fill-rule="evenodd" clip-rule="evenodd" d="M711.962 99.1628C717.951 97.3485 724.465 99.7194 726.949 103.925C729.64 108.43 729.341 116.46 726.135 120.232C722.713 124.232 714.384 124.5 712.405 119.119C711.384 116.377 711.261 101.967 711.962 99.1628ZM653.928 102.461C653.433 100.678 655.855 94.9777 656.556 92.844C657.257 90.7721 658.979 85.1542 659.886 83.8142C661.112 85.3294 666.112 100.41 665.73 102.657C663.277 103.183 655.762 103.389 653.928 102.451V102.461ZM713.683 74.0319C726.135 71.692 730.042 87.5353 722.651 93.0501C720.723 94.5139 718.414 94.9159 715.466 94.9159C710.673 94.9159 711.611 94.2149 711.611 89.6588C711.611 86.6798 711.642 83.7008 711.642 80.7218C711.611 78.0623 710.828 74.5576 713.683 74.0319ZM658.515 73.9185C658.02 79.2374 648.021 104.276 645.485 110.934C644.403 113.8 643.238 116.985 641.919 119.727C639.084 125.654 634.992 122.562 634.178 124.727C632.837 128.262 638.796 126.747 644.114 126.768C646.135 126.798 648.207 126.798 650.217 126.881C653.051 126.994 654.484 127.819 653.66 124.283C652.814 123.758 648.959 123.088 647.557 122.562C647.32 120.191 648.753 116.985 649.454 114.872L651.237 109.44C651.907 107.45 652.031 107.399 658.195 107.481C668.513 107.626 667.575 106.255 669.297 111.811C669.998 114.027 672.544 120.81 672.101 122.768C669.091 124.489 665.875 122.5 666.988 126.86C675.286 126.768 713.209 126.592 715.817 127.097C726.918 127.097 737.793 125.376 741.123 116.635C743.02 111.635 742.288 106.378 739.69 102.492C737.907 99.8018 735.103 98.0495 731.825 96.9672C730.361 96.4724 729.083 96.5858 728.496 95.4725C730.217 94.2458 734.66 93.9778 737.35 89.5454C739.391 86.1541 739.195 81.2475 737.35 77.7118C732.382 68.2697 713.714 69.6716 703.189 70.1973C700.035 70.3726 693.552 69.9912 693.17 71.8672C692.294 75.8976 698.345 72.1558 699.448 76.8357C700.118 79.6394 699.767 107.368 699.767 114.707C699.767 120.634 700.324 122.418 694.892 123.624C691.737 124.294 687.119 124.036 685.367 120.789C683.965 118.243 682.708 113.924 681.625 110.821L667.338 69.4758C665.38 67.4348 663.947 72.5991 658.515 73.9185Z" fill="white"/>
<path fill-rule="evenodd" clip-rule="evenodd" d="M540.673 90.339C539.302 96.3898 535.942 98.7503 528.839 98.204C525.129 97.9359 526.149 94.9054 526.149 91.3698C526.149 88.0712 526.149 84.7417 526.118 81.4329C526.118 78.5673 525.273 74.3616 528.19 73.9493C536.663 72.7226 542.858 80.7835 540.663 90.339H540.673ZM507.894 71.0218L507.801 73.5679C509.615 74.1245 512.656 73.7431 513.646 75.6707C514.965 78.124 514.377 110.388 514.377 115.377C514.316 126.602 511.481 121.366 507.337 124.376C506.78 128.056 508.595 127.004 511.749 126.891L526.737 126.829C530.54 126.943 532.963 127.736 533.313 125.953C533.87 123.149 530.716 123.85 528.664 123.118C526.469 122.304 526.355 120.376 526.211 117.717C526.098 115.202 525.654 104.214 526.479 102.812C526.943 102.193 527.417 102.111 528.499 102.049C534.138 101.843 533.674 105.76 537.591 113.151C540.395 118.408 542.992 123.17 548.167 125.603C552.898 127.798 557.929 127.53 562.98 126.829L590.45 126.891C591.997 123.087 589.131 123.995 586.502 123.242C583.956 122.479 583.76 120.583 583.606 117.779C583.338 112.109 583.544 106.007 583.544 100.276C583.544 96.8021 583.049 77.9797 584.245 75.413C585.152 73.4854 588.069 73.4236 590.646 72.9288L590.79 70.0322L564.144 70.125L564.031 72.9288C572.618 74.743 571.247 73.0422 571.247 93.4417C571.247 98.441 571.834 117.552 570.783 120.964C570.164 122.861 568.711 123.211 566.608 123.593C563.567 124.149 564.649 124.85 561.526 123.881C552.991 121.222 544.374 100.039 544.466 99.0698C548.033 96.5031 553.383 94.8023 554.053 87.2672C554.692 80.0207 550.929 75.6707 546.744 73.1246C542.096 70.3209 534.849 69.9395 528.541 69.9704C524.479 69.9704 510.605 69.9704 507.914 71.0218H507.894Z" fill="white"/>
<path fill-rule="evenodd" clip-rule="evenodd" d="M316.362 124.15C315.774 125.346 315.774 125.665 316.362 126.871C316.918 126.985 341.987 126.964 342.369 126.871C342.956 125.645 342.781 125.676 342.606 124.15C336.442 122.047 335.277 125.439 335.184 115.739C335.153 112.791 334.514 101.74 335.71 99.9881C336.503 99.4006 353.47 99.6376 357.006 99.6376C361.387 99.6686 360.191 100.081 360.098 115.388C360.006 125.645 358.026 122.521 353.522 124.181C353.347 125.676 353.171 125.645 353.759 126.84C354.903 127.16 370.21 126.748 374.53 126.902C378.148 127.047 379.756 128.129 379.23 124.243C375.024 122.078 372.447 126.17 372.427 115.038C372.396 109.719 371.808 78.1352 373.097 75.2696C374.148 72.9297 376.601 73.7749 378.828 72.7544L378.941 70.2084L353.171 70.095L353.027 72.9297C359.284 74.1254 359.954 73.074 360.067 80.3823C360.129 82.9799 360.624 92.9168 359.717 94.4115C358.903 95.432 356.099 95.0506 354.223 95.0506C350.893 95.0506 336.514 95.5454 335.576 94.6074C334.761 93.8136 334.555 76.8158 336.101 74.6202C337.153 73.1874 339.812 73.5069 341.42 72.7235L341.534 70.2084L316.197 70.095C314.681 77.0735 322.423 68.4045 322.825 79.3618C323.144 88.6493 322.856 103.73 322.856 113.667C322.856 125.768 321.454 122.346 316.341 124.16L316.362 124.15Z" fill="white"/>
<path fill-rule="evenodd" clip-rule="evenodd" d="M751.315 84.2066C753.449 79.3515 754.439 75.8778 760.139 74.6511C762.623 74.1254 776.446 73.5997 777.848 74.6202C778.374 75.2077 777.261 76.8158 776.683 77.8053L770.457 87.7113C767.623 92.1541 764.726 96.4216 761.922 100.772L747.017 123.243C745.904 124.82 743.162 127.222 748.336 126.892C761.489 126.129 781.239 127.562 794.032 126.985C795.722 125.088 797.918 115.563 797.856 112.234C794.114 110.657 794.959 111.997 791.949 116.739C790.403 119.161 788.702 121.212 785.373 122.171C781.899 123.14 766.2 123.253 762.902 122.14C762.788 119.975 769.21 110.832 770.56 108.729C776.405 99.4418 787.3 82.1965 793.815 73.6615C794.629 72.5483 795.887 71.6412 795.506 70.4145C795.413 70.3527 795.269 70.2084 795.217 70.3011C795.186 70.3939 795.042 70.2084 794.949 70.1877C793.578 69.8991 791.681 70.1259 790.249 70.1568C788.29 70.1877 786.362 70.1877 784.404 70.1877C780.93 70.2187 757.108 70.363 755.387 69.9507C752.521 69.2806 754.861 67.7551 751.47 68.0849C750.563 69.4043 749.625 75.8262 749.192 77.7847C748.285 81.7327 746.007 85.0003 751.295 84.2169L751.315 84.2066Z" fill="white"/>
<path fill-rule="evenodd" clip-rule="evenodd" d="M274.696 110.234C271.16 109.708 271.253 111.141 272.212 117.769C272.624 120.542 273.005 124.077 275.366 125.304C283.839 129.778 300.672 129.571 307.537 120.48C310.722 116.274 311.629 108.997 309.145 103.502C304.29 92.7822 289.776 92.2565 285.89 83.8967C282.849 77.3511 288.612 72.2384 294.858 72.8775C301.96 73.6403 303.95 81.464 305.372 83.8349C308.145 84.1853 308.588 84.2472 308.496 81.4434C308.434 79.8354 308.29 78.0005 308.083 76.3925C307.238 69.9397 307.063 71.0426 303.754 70.1355C297.848 68.4966 290.55 68.2698 284.911 70.4036C279.912 72.2693 276.118 75.6606 274.799 81.2476C271.356 96.2044 286.983 100.946 292.333 104.884C308.578 116.831 291.364 133.932 278.335 117.161C276.52 114.821 276.026 112.254 274.686 110.234H274.696Z" fill="white"/>
<path fill-rule="evenodd" clip-rule="evenodd" d="M598.184 110.264C594.679 109.677 594.679 111.11 595.699 117.831C596.143 120.603 596.493 124.108 598.854 125.345C603.472 127.737 611.182 128.644 617.057 127.798C623.366 126.922 628.19 124.232 631.056 120.49C634.21 116.315 635.086 109.007 632.633 103.544C627.726 92.6791 613.522 92.4111 609.378 83.9379C607.883 80.8661 608.852 77.4851 610.522 75.5781C614.501 71.0529 622.562 71.5168 627.211 80.1652C627.85 81.3609 628.262 82.8865 628.881 83.8451C632.148 84.2574 632.623 84.4842 631.602 76.5162C631.458 75.2277 631.159 73.1248 630.839 72.0734C630.344 70.3829 629.2 70.6406 627.273 70.1458C616.604 67.2802 601.441 68.7439 598.379 80.9589C596.74 87.5045 598.823 92.2358 602.997 96.5033C608.698 102.348 626.314 106.729 621.82 118.799C619.954 123.85 612.934 125.984 607.296 122.366C604.904 120.82 603.554 119.356 601.894 117.191C600.08 114.821 599.555 112.254 598.215 110.264H598.184Z" fill="white"/>
<path fill-rule="evenodd" clip-rule="evenodd" d="M743.43 152.435C743.224 148.724 743.337 141.416 745.626 139.344C747.615 137.53 749.862 138.88 750.769 140.839C752.635 144.9 752.934 157.404 749.625 160.187C745.327 163.836 743.605 156.033 743.43 152.445V152.435ZM738.142 153.105C740.307 167.681 760.345 165.464 757.284 146.322C755.006 132.005 735.338 133.932 738.142 153.105Z" fill="white"/>
<path fill-rule="evenodd" clip-rule="evenodd" d="M718.22 144.857C718.663 143.631 718.777 137.374 724.673 138.755C728.095 139.518 728.353 144.074 726.951 147.434C724.23 153.949 717.457 159.33 716.282 161.989H732.94L734.981 154.124C733.084 155.268 733.899 157.103 730.507 157.423C728.817 157.567 724.9 157.536 723.23 157.361C724.137 156.918 728.93 152.537 729.775 151.609C731.559 149.712 733.929 146.847 733.28 142.868C732.785 139.621 729.775 137.662 726.271 137.168C721.508 136.467 719.612 137.961 716.396 139.301L717.942 144.445C717.942 144.507 718.055 144.713 718.055 144.651C718.086 144.589 718.148 144.796 718.199 144.857H718.22Z" fill="white"/>
<path fill-rule="evenodd" clip-rule="evenodd" d="M761.779 144.858C762.223 143.601 762.367 137.375 768.232 138.725C771.593 139.519 771.912 144.044 770.479 147.435C769.077 150.765 764.985 156.145 762.47 158.599C761.563 159.506 760.274 160.794 759.811 162.021L776.499 161.99L778.52 154.156C776.674 155.207 777.437 157.104 774.077 157.424C772.355 157.568 768.5 157.537 766.799 157.362L773.314 151.579C779.623 144.652 777.169 138.168 769.84 137.148C765.047 136.509 763.181 137.941 759.965 139.312L761.779 144.868V144.858Z" fill="white"/>
<path fill-rule="evenodd" clip-rule="evenodd" d="M508.153 148.951C509.091 149.683 508.678 149.333 509.297 150.353C509.616 150.848 509.936 151.435 510.204 151.868C515.956 161.568 515.41 161.857 518.213 157.187C519.358 155.26 522.388 149.735 523.439 148.745L523.47 162.362L526.192 162.455L526.016 142.911L523.852 142.972L515.812 156.321L509.153 145.364C507.833 143.086 508.452 142.942 505.38 142.942V162.516L508.122 162.248L508.153 148.951Z" fill="white"/>
<path fill-rule="evenodd" clip-rule="evenodd" d="M784.775 151.403C785.59 149.939 786.383 149.414 787.723 148.156C788.775 147.166 789.445 146.053 790.558 145.177L790.764 151.434L784.775 151.403ZM800 150.527C799.907 150.558 799.825 150.64 799.732 150.702C799.67 150.733 799.557 150.816 799.464 150.846C798.062 151.661 797.918 151.547 796.104 151.547L796.073 137.023C794.671 137.58 793.176 139.941 791.774 141.229L783.734 150.022C782.157 151.692 780.755 152.475 779.786 154.578L790.744 154.64C790.919 156.629 791.331 160.072 790.043 161.123C789.661 161.412 789.517 161.412 789.166 161.618L798.371 161.907C797.083 161.031 796.238 161.381 796.093 159.278C796.001 158.052 796.062 155.836 796.186 154.578L799.196 154.547L799.99 150.517L800 150.527Z" fill="white"/>
<path fill-rule="evenodd" clip-rule="evenodd" d="M393 145.414C403.37 143.074 405.679 158.217 396.474 160.021C386.187 162.01 383.527 147.569 393 145.414ZM384.496 154.475C386.486 166.628 406.968 164.938 405.009 151.053C403.257 138.518 382.249 140.59 384.496 154.475Z" fill="white"/>
<path fill-rule="evenodd" clip-rule="evenodd" d="M445.335 154.157L445.304 145.395C449.572 145.395 455.468 144.632 455.468 149.693C455.468 154.754 450.005 154.167 445.325 154.167L445.335 154.157ZM454.128 156.198C455.767 154.528 457.313 154.734 458.076 151.641C460.271 142.581 449.489 142.199 442.531 143.024V162.424L445.366 162.279V156.548L451.324 156.579C452.118 157.393 455.004 161.547 455.385 162.454L458.478 162.393C457.859 161.022 455.148 157.455 454.128 156.198Z" fill="white"/>
<path fill-rule="evenodd" clip-rule="evenodd" d="M329.451 145.384C339.594 143.188 342.305 158.238 332.698 160.052C322.442 161.949 319.844 147.487 329.451 145.384ZM320.741 153.806C322.029 166.577 342.542 165.258 341.429 151.847C340.347 138.9 319.339 140.127 320.741 153.806Z" fill="white"/>
<path fill-rule="evenodd" clip-rule="evenodd" d="M275.684 145.415L286.58 145.384L286.528 142.931H272.932L272.85 162.454H287.023L286.992 159.97H275.684V153.744L285.291 153.713L285.415 151.322H275.715L275.684 148.662V145.415Z" fill="white"/>
<path fill-rule="evenodd" clip-rule="evenodd" d="M604.638 145.415C608.411 145.415 613.348 144.776 614.482 148.106C616.729 154.796 608.493 154.126 604.638 154.126V145.415ZM604.669 156.579C607.937 156.579 611.678 156.929 614.307 155.527C616.41 154.414 618.018 151.847 617.461 148.518C616.348 141.859 608.637 142.941 601.824 142.941L601.793 162.485L604.628 162.423L604.659 156.579H604.669Z" fill="white"/>
<path fill-rule="evenodd" clip-rule="evenodd" d="M583.05 146.24C583.287 146.477 583.112 146.178 583.494 146.827L587.143 155.301L578.989 155.187L583.05 146.25V146.24ZM575.886 162.423C576.123 161.63 577.7 157.599 578.257 157.568L588.307 157.599L590.297 162.393L593.276 162.362C592.193 159.352 590.183 155.321 588.72 152.249C584.37 143.106 585.885 142.962 581.741 142.9L573 162.444L575.897 162.413L575.886 162.423Z" fill="white"/>
<path fill-rule="evenodd" clip-rule="evenodd" d="M669.708 146.003L673.687 155.321L665.451 155.259L669.718 145.992L669.708 146.003ZM664.389 157.599L674.645 157.63C675.79 159.063 675.81 161.516 677.387 162.485L679.872 162.392L670.873 142.931H668.213L659.503 162.454L662.338 162.423L664.379 157.599H664.389Z" fill="white"/>
<path fill-rule="evenodd" clip-rule="evenodd" d="M480.807 160.433C492.785 167.474 499.918 156.836 493.547 153.073C490.857 151.465 483.847 151.434 484.023 148.023C484.136 146.002 486.239 145.219 488.373 145.157C491.207 145.064 492.084 145.92 494.186 146.621L494.856 144.25C482.322 138.467 476.24 150.331 485.744 153.362C488.991 154.413 490.218 154.063 492.815 156.083C493.259 159.413 491.62 160.258 488.373 160.289C485.569 160.32 483.693 159.124 481.714 158.186L480.807 160.433Z" fill="white"/>
<path fill-rule="evenodd" clip-rule="evenodd" d="M414.915 155.352C414.451 164.939 431.129 165.372 431.078 155.558V143.086H428.769L428.707 154.507C427.449 162.279 418.45 162.279 417.368 153.837C417.193 152.435 417.399 150.59 417.399 149.332C417.43 147.26 417.399 145.178 417.399 143.106H414.977L414.915 155.352Z" fill="white"/>
<path fill-rule="evenodd" clip-rule="evenodd" d="M564.754 157.919C560.023 162.619 551.632 159.558 551.869 152.425C552.044 147.394 557.6 142.137 564.929 147.425L566.599 145.91C563.62 140.158 548.952 141.787 549.065 152.775C549.158 164.021 563.445 164.722 566.651 159.609C566.063 158.64 565.836 158.413 564.754 157.919Z" fill="white"/>
<path fill-rule="evenodd" clip-rule="evenodd" d="M311.366 158.011C300.058 166.102 293.1 149.599 302.955 145.734C307.397 143.981 309.913 146.61 311.366 147.373C312.448 146.785 312.685 146.672 313.118 145.445C304.439 139.075 295.152 144.6 295.44 153.135C295.76 162.659 308.294 165.783 313.087 159.567L311.366 158.021V158.011Z" fill="white"/>
<path fill-rule="evenodd" clip-rule="evenodd" d="M648.145 145.415L654.752 145.364L654.608 142.931H638.62L638.764 145.415H645.228V162.392L648.031 162.454L648.145 145.415Z" fill="white"/>
<path fill-rule="evenodd" clip-rule="evenodd" d="M368.174 162.454L370.978 162.331V145.415H377.43L377.492 142.9L361.535 142.962L361.474 145.364L368.112 145.477L368.174 162.454Z" fill="white"/>
<path fill-rule="evenodd" clip-rule="evenodd" d="M688.357 162.454L701.737 162.392L701.675 160.001L691.161 159.97L691.017 142.931H688.44L688.326 161.341L688.357 162.454Z" fill="white"/>
<path fill-rule="evenodd" clip-rule="evenodd" d="M468.36 162.454L471.185 162.392V143.055L468.36 142.931V160.671V162.454Z" fill="white"/>
<path fill-rule="evenodd" clip-rule="evenodd" d="M627.249 162.454H630.053L629.939 142.931H627.342L627.249 158.599V162.454Z" fill="white"/>
</svg>
