<svg width="16" height="16" viewBox="0 0 16 16" fill="none" xmlns="http://www.w3.org/2000/svg">
<path fill-rule="evenodd" clip-rule="evenodd" d="M12.6952 3.9235C13.2092 4.06189 13.6144 4.46716 13.7528 4.98116C14.0098 5.9202 13.9999 7.87736 13.9999 7.87736C13.9999 7.87736 13.9999 9.82463 13.7528 10.7637C13.6144 11.2777 13.2092 11.6829 12.6952 11.8213C11.7561 12.0684 7.99997 12.0684 7.99997 12.0684C7.99997 12.0684 4.2537 12.0684 3.30477 11.8114C2.79077 11.6731 2.3855 11.2678 2.24712 10.7538C2 9.82463 2 7.86747 2 7.86747C2 7.86747 2 5.9202 2.24712 4.98116C2.3855 4.46716 2.80066 4.052 3.30477 3.91362C4.24381 3.6665 7.99997 3.6665 7.99997 3.6665C7.99997 3.6665 11.7561 3.6665 12.6952 3.9235ZM9.92747 7.799L6.80392 9.59801V6L9.92747 7.799Z" fill="#6A6E82"/>
</svg>
