<svg width="16" height="16" viewBox="0 0 16 16" fill="none" xmlns="http://www.w3.org/2000/svg">
<path d="M8.00013 2.18164C6.42006 2.18164 6.22176 2.18855 5.60117 2.21679C4.9818 2.24516 4.55902 2.34322 4.1891 2.4871C3.80644 2.6357 3.48184 2.83449 3.15846 3.158C2.83483 3.4814 2.63605 3.806 2.48696 4.18855C2.34273 4.55861 2.24455 4.98152 2.21667 5.60067C2.18891 6.22128 2.18164 6.4197 2.18164 7.99982C2.18164 9.57994 2.18867 9.77764 2.21679 10.3982C2.24528 11.0176 2.34333 11.4404 2.48709 11.8104C2.63581 12.193 2.83459 12.5176 3.1581 12.841C3.48136 13.1647 3.80596 13.3639 4.18837 13.5125C4.55854 13.6564 4.98143 13.7545 5.60069 13.7829C6.22128 13.8111 6.41945 13.818 7.9994 13.818C9.5796 13.818 9.77729 13.8111 10.3979 13.7829C11.0173 13.7545 11.4405 13.6564 11.8107 13.5125C12.1932 13.3639 12.5173 13.1647 12.8406 12.841C13.1642 12.5176 13.363 12.193 13.5121 11.8105C13.6551 11.4404 13.7533 11.0175 13.7824 10.3984C13.8103 9.77776 13.8175 9.57994 13.8175 7.99982C13.8175 6.4197 13.8103 6.2214 13.7824 5.60079C13.7533 4.9814 13.6551 4.55861 13.5121 4.18867C13.363 3.806 13.1642 3.4814 12.8406 3.158C12.517 2.83437 12.1933 2.63558 11.8103 2.4871C11.4394 2.34322 11.0164 2.24516 10.397 2.21679C9.77644 2.18855 9.57887 2.18164 7.99831 2.18164H8.00013ZM7.47821 3.23013C7.63311 3.22988 7.80595 3.23013 8.00013 3.23013C9.55354 3.23013 9.73765 3.2357 10.3511 3.26358C10.9183 3.28952 11.2262 3.38431 11.4313 3.46394C11.7028 3.5694 11.8964 3.69546 12.0999 3.89909C12.3035 4.10273 12.4296 4.29667 12.5353 4.56819C12.6149 4.77303 12.7098 5.08091 12.7356 5.64819C12.7635 6.26152 12.7696 6.44576 12.7696 7.99849C12.7696 9.55122 12.7635 9.73546 12.7356 10.3488C12.7097 10.9161 12.6149 11.2239 12.5353 11.4288C12.4298 11.7003 12.3035 11.8936 12.0999 12.0972C11.8963 12.3008 11.7029 12.4269 11.4313 12.5323C11.2265 12.6123 10.9183 12.7069 10.3511 12.7328C9.73778 12.7607 9.55354 12.7667 8.00013 12.7667C6.4466 12.7667 6.26249 12.7607 5.64917 12.7328C5.08192 12.7066 4.77405 12.6118 4.56884 12.5322C4.29733 12.4267 4.1034 12.3007 3.89977 12.097C3.69614 11.8934 3.57008 11.6999 3.46439 11.4283C3.38476 11.2235 3.28985 10.9156 3.26403 10.3483C3.23615 9.73497 3.23058 9.55073 3.23058 7.99703C3.23058 6.44334 3.23615 6.26007 3.26403 5.64673C3.28997 5.07946 3.38476 4.77158 3.46439 4.56649C3.56984 4.29497 3.69614 4.10103 3.89977 3.8974C4.1034 3.69376 4.29733 3.5677 4.56884 3.462C4.77393 3.382 5.08192 3.28746 5.64917 3.2614C6.18588 3.23716 6.39388 3.22988 7.47821 3.22867V3.23013ZM11.1057 4.19619C10.7203 4.19619 10.4076 4.50855 10.4076 4.89413C10.4076 5.27958 10.7203 5.59231 11.1057 5.59231C11.4912 5.59231 11.8039 5.27958 11.8039 4.89413C11.8039 4.50867 11.4912 4.19594 11.1057 4.19594V4.19619ZM8.00013 5.01194C6.35012 5.01194 5.01234 6.34976 5.01234 7.99982C5.01234 9.64988 6.35012 10.9871 8.00013 10.9871C9.65014 10.9871 10.9874 9.64988 10.9874 7.99982C10.9874 6.34976 9.65002 5.01194 8.00001 5.01194H8.00013ZM8.00013 6.06043C9.07113 6.06043 9.93947 6.92867 9.93947 7.99982C9.93947 9.07085 9.07113 9.93922 8.00013 9.93922C6.92901 9.93922 6.0608 9.07085 6.0608 7.99982C6.0608 6.92867 6.92901 6.06043 8.00013 6.06043Z" fill="#6A6E82"/>
</svg>
