<svg width="16" height="16" viewBox="0 0 16 16" fill="none" xmlns="http://www.w3.org/2000/svg">
<path fill-rule="evenodd" clip-rule="evenodd" d="M2 8C2 10.9667 4.16667 13.4333 7 13.9333L7.0334 13.9066C7.02227 13.9045 7.01113 13.9023 7 13.9V9.66671H5.5V8.00004H7V6.66671C7 5.16671 7.96667 4.33337 9.33333 4.33337C9.76667 4.33337 10.2333 4.40004 10.6667 4.46671V6.00004H9.9C9.16667 6.00004 9 6.36671 9 6.83337V8.00004H10.6L10.3333 9.66671H9V13.9C8.98887 13.9023 8.97773 13.9045 8.9666 13.9066L9 13.9333C11.8333 13.4333 14 10.9667 14 8C14 4.7 11.3 2 8 2C4.7 2 2 4.7 2 8Z" fill="#6A6E82"/>
</svg>
