<svg width="16" height="16" viewBox="0 0 16 16" fill="none" xmlns="http://www.w3.org/2000/svg">
<path d="M12.2171 3.74195L2.58432 7.45732C1.92687 7.7211 1.93077 8.0878 2.46449 8.25131L4.86692 9.00116L5.78615 11.8194C5.8979 12.1279 5.84282 12.2502 6.16673 12.2502C6.4167 12.2502 6.5276 12.1363 6.66682 12.0003C6.75535 11.9136 7.28102 11.4026 7.86797 10.8319L10.3669 12.6782C10.8268 12.9319 11.1588 12.8005 11.2733 12.2512L12.9137 4.52102C13.0817 3.84769 12.657 3.54227 12.2171 3.74195ZM5.24396 8.82888L10.6591 5.41246C10.9294 5.24851 11.1773 5.33666 10.9737 5.5173L6.337 9.70082L6.15646 11.6264L5.24396 8.82888Z" fill="#6A6E82"/>
</svg>
