<svg width="130" height="38" viewBox="0 0 130 38" fill="none" xmlns="http://www.w3.org/2000/svg">
<g clip-path="url(#clip0_438_232)">
<path fill-rule="evenodd" clip-rule="evenodd" d="M18.3567 10.9865C19.0786 10.8961 20.0234 11.0904 20.6029 11.3383C21.4907 11.7185 22.288 12.3785 22.8056 13.1188C24.087 14.9513 24.226 17.3165 23.0853 19.2294C22.7822 19.7419 22.3249 20.283 21.8559 20.6448C21.0066 21.2997 20.2796 21.6699 19.0502 21.7604C17.1942 21.8927 15.618 21.0485 14.5543 19.6381C13.9229 18.7972 13.6096 17.8291 13.5141 16.7185C13.3852 15.2662 13.9078 13.7788 14.8525 12.7637C15.4404 12.1222 15.4991 12.0569 16.3014 11.5627C16.9513 11.1641 17.6498 11.0786 18.3567 10.9882V10.9865ZM18.1909 22.757C18.2244 22.9513 18.2143 28.5778 18.2009 28.6498C18.1825 28.7352 18.0636 28.8776 18.0066 29.0066C17.8307 29.3952 17.5895 30.0937 17.2277 30.3885C17.1758 30.0753 17.2428 27.8106 17.2378 27.2545C17.2378 26.69 17.2528 26.3282 17.0049 25.8961C16.4739 24.9647 15.1724 24.216 14.1557 23.9296C13.7051 23.8006 13.3584 23.7252 12.8542 23.6498C12.6264 23.6163 12.3935 23.5828 12.1507 23.5543C11.9078 23.5309 11.6716 23.4739 11.4337 23.4455C11.5527 23.8106 12.1038 24.4086 12.3969 24.6565C13.6649 25.7051 15.8106 25.1791 16.0669 26.3701C16.2947 27.4103 16.1004 28.3835 16.0904 29.4136C16.0853 30.1406 16.0853 30.7235 15.6917 31.1657C14.9229 32.025 13.4505 30.6146 12.5912 30.4622C12.4873 30.9128 12.0267 31.288 11.5895 31.4455C10.5778 31.7972 9.18751 31.479 8.18081 31.2126C7.99488 31.1657 6.70342 30.819 6.64312 30.7754C6.58114 30.7185 6.54262 30.2813 6.52419 30.1909C6.28131 28.9848 5.62637 27.2512 6.38684 26.0703C6.33491 25.9982 6.27294 25.9698 6.19756 25.8944C5.97478 25.6766 5.84077 25.4002 5.63307 25.2964C5.31481 25.4907 5.09203 26.3165 5.02503 26.7118C4.86423 27.747 5.16741 29.2244 5.34329 30.2729C5.44379 30.8575 5.51414 31.4321 5.61464 32.015C6.63139 32.082 6.55434 31.9966 7.66155 32.2528C8.80057 32.5242 10.3818 33.1641 11.4371 32.8408C11.9647 32.68 12.6096 32.2428 12.7805 31.8961C13.412 31.9681 15.6381 33.2311 17.2679 32.0049C17.3718 31.9296 17.4907 31.8391 17.5677 31.7587C17.6632 31.6548 17.7671 31.5694 17.8525 31.4639C18.1088 31.1456 18.5795 30.5426 18.7453 30.1004C18.8358 30.1523 18.8257 30.1724 18.9162 30.2813C19.2579 30.7185 19.6615 31.355 20.0133 31.6532C20.4404 32.0183 21.3718 32.3316 22.0736 32.427V31.2964C21.9363 31.1825 21.4036 31.0351 21.2997 30.3902C21.2277 29.9296 21.1674 27.618 21.2143 27.1574C21.2813 26.5074 21.2294 26.2311 21.6314 25.8709C21.9162 25.6096 22.4488 25.5476 22.881 25.4488C23.3835 25.3299 23.7738 25.2495 24.2193 25.0786C24.7218 24.8843 24.9128 24.7319 25.2361 24.4237C25.4455 24.2193 25.8056 23.7637 25.958 23.4605C25.7017 23.427 23.6783 23.7838 23.2713 23.9162C22.1741 24.2729 21.0066 24.8709 20.427 25.8207C20.1473 26.2863 20.1557 26.5091 20.1607 27.1306C20.1657 27.5761 20.2461 30.0418 20.1222 30.2361C20.1172 30.2361 20.1071 30.221 20.1038 30.226L20.0418 30.1641C19.7001 29.747 19.5677 28.8157 19.1775 28.5694V22.7537C20.0267 22.7252 20.948 22.4069 21.561 22.0552C21.8927 21.8693 22.1925 21.6615 22.4672 21.4371C25.288 19.1339 25.6398 14.9229 23.3785 12.216C23.0083 11.7738 23.0133 11.7838 22.618 11.427C22.2043 11.0518 21.7403 10.7436 21.2227 10.5058C19.7034 9.7989 17.6766 9.77377 16.1607 10.5108C15.5242 10.819 15.278 11.01 14.7788 11.4086L14.3751 11.7939C13.3634 12.9245 12.6515 14.0301 12.5426 16.1105C12.4672 17.4404 12.8458 18.7168 13.4739 19.7754C13.5694 19.9363 13.6833 20.0837 13.7821 20.226C13.8575 20.3265 13.8726 20.3634 13.948 20.4589C14.015 20.5443 14.0619 20.5828 14.1339 20.6682C14.4572 21.0569 14.9178 21.4572 15.3399 21.7453C15.8106 22.0736 16.3081 22.3198 16.8927 22.5091C17.4907 22.7034 17.7001 22.6699 18.1942 22.7554L18.1909 22.757Z" fill="#4C89C5"/>
<path fill-rule="evenodd" clip-rule="evenodd" d="M25.1688 25.8827C25.1688 26.7085 26.0382 28.0049 25.2358 29.6616C24.6764 30.8207 23.7015 31.2277 22.4636 31.3952C22.4067 32.6163 22.7953 33.422 21.3246 34.3014C20.5407 34.7721 19.6914 35.1038 18.9075 35.7219C18.8322 35.7788 18.8221 35.8023 18.7501 35.8458C18.6127 35.7838 18.1471 35.3617 17.7953 35.1473C16.5139 34.3634 16.1722 34.6247 15.4452 33.3902C15.3447 33.2143 15.2559 33.0016 15.1605 32.8626C14.8087 32.8441 14.4435 32.7822 14.1152 32.8525C14.1672 34.2763 15.1973 35.0418 16.0533 35.5778C16.5424 35.881 17.0315 36.1423 17.4971 36.4472C17.7199 36.5996 17.9578 36.7755 18.1521 36.9497L18.7786 37.5008C19.1353 37.2009 19.2526 36.8827 20.0516 36.3467C21.0968 35.6431 22.4536 35.2931 23.0231 34.3852C23.4033 33.7721 23.4167 33.1892 23.4653 32.3668C24.4251 32.0384 25.1136 31.953 25.8389 30.9949C26.395 30.2629 26.6981 29.2529 26.7032 28.0753L26.5038 26.4941C27.0348 26.618 27.1504 26.7788 27.8188 26.7838C28.4368 26.7838 29.0968 26.6884 29.6378 26.5125C30.2124 26.3316 30.611 26.0669 30.859 25.6381C30.807 25.4723 30.5357 25.2679 30.3698 25.1591C29.8137 24.8073 29.8104 25.3165 29.0348 25.5158C28.204 25.7302 27.1923 25.4488 26.405 25.2545C25.7685 25.1021 25.1705 25.154 25.1705 25.881L25.1688 25.8827Z" fill="#1C3A64"/>
<path fill-rule="evenodd" clip-rule="evenodd" d="M0 18.67C0.0435511 18.856 0.375209 19.0453 0.60804 19.2496C2.04188 20.5176 2.56951 23.3987 4.78224 23.5612C5.59464 23.6231 5.067 23.5712 5.85092 24.8995C7.00503 26.856 8.80905 27.0553 11.0117 26.5327C11.0268 27.0687 10.7688 27.7203 10.8744 28.9263C10.9263 29.5293 11.1491 30.4171 11.6248 30.7588C11.8342 30.7119 12.4137 30.1742 12.3367 29.8945C12.1323 29.1307 11.7956 28.603 11.9615 27.5829C12.062 26.9464 12.8074 25.4422 11.7672 25.2613C10.799 25.0905 10.4707 26.0017 9.10385 25.8174C8.44891 25.727 8.01675 25.3953 7.64657 25.0855C7.29983 24.7906 6.9866 24.3451 6.70687 23.8644C6.40704 23.3618 6.28476 22.8962 6.08543 22.2982C5.38191 22.3166 5.00838 22.5595 4.30988 22.2747C3.68342 22.0185 3.59296 21.7622 3.25628 21.258C2.77722 20.5411 2.75377 20.1943 2.08375 19.33C1.97487 19.1826 1.70352 18.8744 1.63819 18.732C1.70519 18.6315 1.8526 18.4858 2.00838 18.2379C2.44556 17.5545 2.8392 16.794 3.28643 16.0771C3.77554 15.2848 4.08878 15.2982 4.82077 15.0285C4.8593 14.6432 4.99665 14.2312 4.96315 13.8325C3.95142 13.7856 3.12563 14.4205 2.59799 15.119C2.42714 15.3468 1.50084 16.9431 1.20268 17.402C1.03685 17.6483 0.871022 17.8861 0.690117 18.1089C0.59464 18.2228 0.509213 18.3233 0.400335 18.4272C0.229481 18.593 0.247906 18.5645 0.00670017 18.67H0Z" fill="#1C3A64"/>
<path fill-rule="evenodd" clip-rule="evenodd" d="M10.8359 9.17414C10.8359 9.5594 10.9314 10.2897 10.9733 10.7085C10.042 10.5761 9.90462 10.2998 8.61819 10.5225C8.248 10.5895 7.93477 10.6884 7.62656 10.8358C7.38871 10.9447 6.93812 11.206 6.82422 11.3634C7.01015 11.6582 7.1475 11.819 7.46073 11.9999C7.65001 12.1138 7.72204 12.0284 7.91635 11.948C8.92807 11.5058 9.30831 11.3919 10.5562 11.8006C10.8694 11.9011 11.2681 12.0619 11.6299 12.0385C11.99 12.015 12.2798 11.7587 12.3234 11.4204C12.4138 10.6884 11.4591 9.62975 12.1659 7.91618C12.5746 6.91953 13.4524 6.48234 14.449 6.24449C15.3753 6.02673 15.1525 6.32489 15.1324 5.27631C15.1174 4.49239 15.5026 3.881 16.0101 3.42372C16.2815 3.17749 16.7271 2.91116 17.1123 2.72523C17.506 2.53595 17.9247 2.29809 18.2748 2.06526C18.8594 1.68502 18.5411 1.54265 19.9515 2.45889C20.5026 2.81903 21.176 3.02841 21.6601 3.46057C22.0118 3.7738 22.1207 4.07363 22.2966 4.63812L22.5813 4.68502C22.7003 4.69005 22.8242 4.69507 22.9381 4.7135C23.1559 4.74198 23.3368 4.85085 23.4892 4.8743C23.4741 4.16241 23.2564 3.50244 22.9381 3.03678C22.4105 2.26291 21.6132 2.09708 20.7639 1.61635C20.3502 1.38854 20.3217 1.28469 20.2329 1.23611C19.8292 1.01333 19.7673 1.01836 19.3586 0.614673C19.2061 0.467269 18.8795 0.0786591 18.7505 -0.00341797C18.5981 0.076984 18.6081 0.133935 18.4993 0.276314C18.4239 0.376817 18.3184 0.480669 18.238 0.566096C16.7237 2.13226 14.8761 2.17581 14.2313 4.01333C14.1458 4.25956 14.0503 4.5929 14.0219 4.8676C13.9783 5.22439 14.1224 5.15236 13.4339 5.34164C11.7723 5.80228 10.8359 7.22271 10.8359 9.16911V9.17414Z" fill="#1C3A64"/>
<path fill-rule="evenodd" clip-rule="evenodd" d="M28.7023 11.4187C29.7609 11.4187 30.2081 11.9313 30.6152 12.5812C31.3505 13.7437 31.1378 14.4756 31.4125 14.8458C32.2048 14.8559 32.5331 14.6515 33.255 15.0318C33.6637 15.2462 34.0339 15.7353 34.3137 16.1004C34.5984 16.4756 35.6905 18.2277 35.905 18.7303C35.8095 18.8726 35.4209 19.0385 35.0071 19.7989C34.7358 20.3065 34.642 20.6532 34.2751 21.0435C33.8044 21.5426 33.4393 21.742 32.8312 22.0686C32.6788 22.149 32.7123 22.2395 32.6838 22.4338C32.6453 22.6616 32.5549 23.1088 32.5599 23.3165C34.4259 23.3065 35.3606 21.412 36.4108 20.0452C36.5013 19.9313 36.5766 19.8308 36.6621 19.7219C36.7626 19.5979 36.848 19.5075 36.9418 19.3936L37.374 18.938C37.446 18.8626 37.4745 18.871 37.5214 18.7906C37.384 18.5343 37.1646 18.2596 36.9937 18.0117C36.6001 17.4321 35.7207 16.2596 35.3036 15.7755C34.9954 15.4187 34.7291 15.077 34.3924 14.7403C34.0741 14.4271 33.7224 14.0418 33.3338 13.8241C32.7827 13.5158 32.3271 13.6951 32.2081 13.6348C32.0942 13.5058 32.0323 13.2261 31.9619 13.0318C31.7525 12.4673 31.4108 11.7587 31.0272 11.3517C30.3622 10.6348 29.7257 10.2746 28.6101 10.2696C27.5331 10.2646 27.1294 10.536 26.3589 10.6917C26.4309 9.90278 26.6018 9.23444 26.4962 8.39357C26.4158 7.71518 26.121 6.97816 25.7793 6.55103C25.5984 6.59458 25.2483 7.02506 25.1529 7.23947C25.039 7.4857 25.3053 7.99994 25.3957 8.24114C25.6989 9.03344 25.5532 9.73695 25.3907 10.5494C25.2014 11.5125 25.4376 12.0502 26.4828 11.8559C27.2182 11.7135 27.8982 11.4187 28.7006 11.4187H28.7023Z" fill="#1C3A64"/>
<path fill-rule="evenodd" clip-rule="evenodd" d="M5.46544 5.57457C5.56929 7.54945 5.37499 7.52097 5.0048 9.30657C4.86745 9.96151 4.777 10.5561 4.96125 11.2111C5.09358 11.6818 5.44031 12.3451 5.72172 12.5746C5.70329 12.7923 5.52742 13.201 5.44701 13.4054C5.09023 14.3401 5.03328 15.3468 5.37499 16.2781C5.57934 16.8342 5.93948 17.2563 6.27783 17.593C6.43864 17.7538 6.68654 17.9531 6.88587 18.1156C7.10028 18.2865 7.30798 18.4523 7.51234 18.6098C7.41686 18.7237 7.22256 18.7907 7.06678 18.861C5.97968 19.3836 5.21418 20.655 5.13881 21.9096L6.22591 21.8292C6.56762 20.6466 7.12876 20.134 8.19241 19.6784C8.62457 19.4925 9.23261 19.1943 9.19911 18.6098C9.14216 17.732 8.33479 17.8778 7.48554 17.2429C6.17901 16.2597 5.86577 15.3149 6.53579 13.7287C6.63127 13.5059 6.76862 13.2345 6.8775 13.0352C6.9914 12.8208 7.14886 12.5746 7.24266 12.3702C7.0852 12.1525 6.58269 11.8426 6.26946 11.4255C5.62289 10.5662 6.0182 9.29819 6.29793 8.31494L6.68319 6.75715C7.59442 6.57122 8.28788 6.29652 9.13378 6.06871C9.51401 5.96486 10.0266 5.82583 10.4537 5.87943C11.0283 5.95146 11.303 6.28312 11.5358 6.36854C11.6882 6.23622 11.7502 6.09384 11.8959 5.96988C12.0283 5.85598 12.1757 5.73705 12.3046 5.6131C12.2092 5.28479 11.4303 4.90958 10.9847 4.82081C9.8172 4.58797 8.49726 5.16754 7.40514 5.4389C6.63127 5.6332 6.26611 5.59635 5.46711 5.57625L5.46544 5.57457Z" fill="#4C89C5"/>
<path fill-rule="evenodd" clip-rule="evenodd" d="M30.4585 24.7671C30.8957 24.9095 31.3128 25.3417 31.5071 25.7269C32.2005 27.0703 31.0565 29.0988 30.956 30.8794C29.8119 30.9698 28.4769 31.6717 27.1486 31.6348C26.3881 31.6114 26.2659 31.3216 26.0464 31.2127C25.9895 31.2881 25.6293 31.5879 25.425 31.8341C25.368 31.9011 25.3865 31.8676 25.3496 31.943C25.6059 32.2378 26.157 32.4991 26.6695 32.608C27.2776 32.737 27.9325 32.6934 28.5506 32.613C29.7097 32.4606 30.7633 32.1474 31.9459 32.0201C32.0029 31.7202 32.0079 31.3367 32.0649 31.0083C32.2173 30.0636 32.487 29.1038 32.6494 28.1591C32.8387 27.0435 32.9007 25.809 32.1838 24.8727C32.0883 24.7437 32.0029 24.6683 31.9174 24.5444C32.2742 22.9631 32.8571 20.9162 31.3295 19.5159C30.9979 19.2027 30.5456 18.8693 30.0146 18.6666C30.2039 18.4204 31.492 17.67 32.018 16.3836C32.1185 16.1373 32.3077 15.5343 32.2927 15.2395C32.0833 15.2546 31.5288 15.2831 31.353 15.3249C31.2005 15.3635 31.3061 15.3149 31.1922 15.6817C31.1486 15.8241 31.1067 15.9531 31.0448 16.0854C30.4417 17.4288 29.2876 17.5192 28.7516 18.0519C28.2776 18.5226 28.3295 19.0485 28.894 19.3953C29.1168 19.5326 29.368 19.6331 29.6109 19.747C30.2659 20.0469 30.9175 20.6532 31.1536 21.3986C31.4384 22.2965 31.1771 23.2177 30.8119 24.0385C30.7215 24.2378 30.5087 24.598 30.4602 24.7705L30.4585 24.7671Z" fill="#4C89C5"/>
<path fill-rule="evenodd" clip-rule="evenodd" d="M24.7133 5.66494C23.9344 5.43211 23.0132 4.43043 21.1421 5.1708C20.5575 5.40363 20.1254 5.73026 19.7468 6.05857C19.5659 6.21603 19.3716 6.44718 19.2108 6.68001C19.045 6.92625 18.9445 7.15908 18.8121 7.43043C18.7033 7.35003 18.6363 7.1172 18.5659 6.98487C18.3096 6.51418 17.9813 6.18253 17.5492 5.86929C17.0081 5.48403 16.3147 5.11385 15.4453 5.10547C15.4453 5.44216 15.4453 5.78052 15.5408 6.0837C15.5927 6.2646 15.6262 6.26963 15.8021 6.33496C16.4671 6.58119 17.0751 6.69174 17.5257 7.29475C17.854 7.73194 17.9914 8.22943 18.3381 8.58119C18.9797 9.22273 19.2359 8.68504 19.5157 8.20598C20.0182 7.33161 20.5559 6.39693 21.6899 6.15405C22.3264 6.0167 22.9579 6.13563 23.5173 6.3249C23.7451 6.40028 24.1019 6.53429 24.2527 6.65321C24.4235 6.78219 24.6229 7.0904 24.8992 7.08537C25.2879 6.82909 25.3498 6.22105 25.906 5.9229C26.447 5.63814 27.1304 5.69006 27.7585 5.83244C28.921 6.09877 29.9478 6.62139 31.1823 6.75372C31.2778 7.00497 31.2862 8.0033 31.3348 8.37348C31.4018 8.88604 31.5492 9.35673 31.6145 9.85422C31.6999 10.4723 31.591 10.8425 31.4905 11.417C31.457 11.6314 31.5374 11.603 31.7803 11.9731C31.9093 12.1624 31.9612 12.3249 32.0701 12.5427C32.782 11.1507 32.5207 10.8626 32.3984 9.26628C32.3515 8.64484 32.318 8.08872 32.2326 7.47566C32.1606 6.92457 32.2477 6.09375 32.1321 5.62306C29.7301 5.51921 26.2443 3.77047 24.9629 5.30983C24.8825 5.40531 24.8054 5.57114 24.7167 5.66661L24.7133 5.66494Z" fill="#4C89C5"/>
<path fill-rule="evenodd" clip-rule="evenodd" d="M22.9244 17.9616L21.9043 17.9666C21.6765 18.5931 21.0065 19.248 20.432 19.5897C19.1925 20.3351 17.5928 20.2028 16.4487 19.2011C16.3968 19.1542 16.3767 19.1542 16.3298 19.1107C15.5744 18.4272 15.1188 17.4021 15.1422 16.3569C15.1757 14.9281 15.9496 13.5797 17.236 12.9817C18.2611 12.511 19.5157 12.6299 20.4035 13.119C20.5459 13.1944 20.7268 13.3284 20.8457 13.4373C21.107 13.6651 20.9261 13.4658 21.2544 13.8226C21.6531 14.2547 21.71 14.511 21.8859 14.7723C22.0467 14.8008 22.7888 14.8058 22.9395 14.7673C22.5794 14.0403 22.7971 14.2731 22.2176 13.4373C22.0132 13.1425 21.6146 12.7438 21.3248 12.5345C21.2678 12.4959 21.2293 12.4591 21.1673 12.4155C19.8708 11.4942 17.7536 11.3803 16.3667 12.3301C16.2863 12.387 16.2946 12.3736 16.2142 12.4205L15.7821 12.7773C15.5928 12.9532 15.6782 12.8343 15.5258 13.0386C15.4504 13.1391 15.241 13.31 15.0467 13.5948C14.4772 14.4406 14.164 15.2715 14.169 16.3586C14.174 17.4406 14.5677 18.6467 15.2511 19.4306C15.4219 19.6249 15.5409 19.7623 15.7586 19.9532L16.1757 20.2999C17.5425 21.3686 19.7268 21.3351 21.1523 20.3468C21.561 20.0671 21.7737 19.8393 22.0786 19.4725C22.3784 19.1157 22.8239 18.5043 22.9244 17.9633V17.9616Z" fill="#1C3A64"/>
<path fill-rule="evenodd" clip-rule="evenodd" d="M17.0786 15.2899C17.1255 15.0956 17.5241 14.7338 17.6967 14.6349C17.9814 14.4641 18.2896 14.3602 18.6883 14.3602C19.3583 14.3602 20.0936 14.8108 20.2695 15.2949C20.0266 15.3334 17.2544 15.3334 17.0786 15.2899ZM20.365 17.3066C20.1188 17.6584 20.0417 17.8912 19.5526 18.1609C18.7452 18.6065 18.0049 18.3837 17.3633 17.8326C17.0116 17.5294 16.6699 16.8728 16.7653 16.3552L21.566 16.3502C21.5844 16.1458 21.5275 15.8896 21.4906 15.7087C21.3432 15.0202 20.9161 14.2932 20.3516 13.8996C19.8725 13.5629 19.3499 13.3251 18.69 13.3485C18.2477 13.3636 17.8357 13.4239 17.4839 13.5998C15.7653 14.4457 15.3047 16.6483 16.2779 18.0638C17.2377 19.4507 18.9931 19.8209 20.3181 18.8661C20.7218 18.5763 21.107 18.0638 21.3097 17.6031C21.4421 17.3083 21.499 17.2949 21.1238 17.2999C20.8675 17.305 20.6163 17.2899 20.3633 17.305L20.365 17.3066Z" fill="#1C3A64"/>
<path fill-rule="evenodd" clip-rule="evenodd" d="M23.7609 23.603C23.8898 23.5594 23.9317 23.474 24.0121 23.3568C24.0691 23.2663 24.1411 23.1055 24.183 23.005C24.4158 22.469 24.7341 20.8358 24.3823 20.4924C23.9083 20.6918 23.518 22.948 23.7609 23.603Z" fill="#4C89C5"/>
<path fill-rule="evenodd" clip-rule="evenodd" d="M13.6031 23.598C13.8594 23.3367 13.5881 21.1675 13.1241 20.5829C13.0437 20.4824 13.0855 20.5159 12.9817 20.4924C12.64 20.9949 13.0822 23.412 13.6031 23.598Z" fill="#4C89C5"/>
<path fill-rule="evenodd" clip-rule="evenodd" d="M10.3753 17.7537C10.3418 18.1959 10.6935 19.3199 10.9498 19.7671C11.0537 19.943 11.1776 20.2093 11.3954 20.2278C11.4574 19.4254 11.1525 18.1105 10.7254 17.4405C10.6399 17.3031 10.6115 17.2127 10.4305 17.2026L10.3736 17.7537H10.3753Z" fill="#4C89C5"/>
<path fill-rule="evenodd" clip-rule="evenodd" d="M25.6914 21.6181C25.9376 21.6415 26.2425 21.4087 26.4184 21.2579C26.6177 21.082 26.7986 20.9112 26.9644 20.7068C27.1688 20.4606 27.7484 19.7236 27.7199 19.2579C27.1839 19.1775 25.74 21.0234 25.6931 21.6181H25.6914Z" fill="#4C89C5"/>
<path fill-rule="evenodd" clip-rule="evenodd" d="M25.9969 20.2177C26.1493 20.2278 26.2063 20.1222 26.2767 20.0184C26.4944 19.7102 26.6653 19.3484 26.7708 18.9598C26.9316 18.3718 27.089 17.8492 26.9416 17.2026C26.419 17.2596 25.8361 19.6817 25.9969 20.2177Z" fill="#4C89C5"/>
<path fill-rule="evenodd" clip-rule="evenodd" d="M24.9279 22.0687C25.1457 21.9966 25.3651 21.3367 25.4455 21.067C25.5778 20.6214 25.7403 19.3484 25.479 18.9497C25.1658 18.9447 24.9564 20.1038 24.9229 20.3132C24.8709 20.6415 24.7336 21.809 24.9279 22.0703V22.0687Z" fill="#4C89C5"/>
<path fill-rule="evenodd" clip-rule="evenodd" d="M12.4354 22.0736C12.5878 21.9547 12.5643 21.4136 12.5543 21.2378C12.5359 20.9195 12.5107 20.6682 12.4638 20.355C12.4253 20.0937 12.2411 19.0451 11.9329 18.9346C11.5861 19.3667 11.824 20.829 12.0702 21.4505C12.1992 21.7738 12.2277 21.8357 12.4354 22.0719V22.0736Z" fill="#4C89C5"/>
<path fill-rule="evenodd" clip-rule="evenodd" d="M11.6851 21.6231C11.6097 20.9581 10.2077 19.2009 9.65328 19.2495C9.60973 19.9564 11.1022 21.6767 11.6851 21.6231Z" fill="#4C89C5"/>
<path fill-rule="evenodd" clip-rule="evenodd" d="M24.382 23.2379C25.3987 23.2279 26.6651 22.5059 27.0939 21.7421C26.2346 21.7036 25.2095 22.3502 24.5914 22.9012C24.4959 22.9867 24.377 23.0621 24.382 23.2379Z" fill="#4C89C5"/>
<path fill-rule="evenodd" clip-rule="evenodd" d="M12.9347 23.0803C13.0487 22.7855 11.6332 22.0066 11.2396 21.8274C10.9314 21.69 10.7321 21.68 10.3652 21.6465C10.3987 21.7989 10.4741 21.8743 10.5512 21.9647C11.0403 22.5527 12.4842 23.2612 12.9347 23.0803Z" fill="#4C89C5"/>
<path fill-rule="evenodd" clip-rule="evenodd" d="M65.4251 16.7186C64.9176 16.7186 64.7752 16.7622 64.9595 16.2245C65.0633 15.9213 65.1588 15.6399 65.2543 15.3467C65.4402 14.7823 65.7049 14.1307 65.8472 13.5947C65.8941 13.6416 65.8858 13.6282 65.9377 13.7086C65.9427 13.7236 65.9528 13.737 65.9611 13.7471C65.9662 13.7622 65.9712 13.7756 65.9796 13.7906L66.1789 14.3702C67.0951 17.1005 67.2894 16.7153 65.4234 16.7203L65.4251 16.7186ZM65.6529 12.0134C65.5725 12.8727 64.9779 14.1826 64.6747 14.99C64.4368 15.6114 63.127 19.4774 62.6613 19.8861C62.2157 20.2747 61.6312 19.9246 61.673 20.4137C61.7065 20.789 62.3615 20.6231 62.9176 20.603C63.4687 20.5846 64.3698 20.6885 64.8405 20.6181C64.9729 20.3283 64.9494 20.1675 64.6228 20.1055C64.2995 20.0385 64.1521 20.0486 63.8724 19.9062C63.8338 19.5176 64.2141 18.5628 64.3749 18.0871C64.6261 17.3467 64.3179 17.4037 66.7635 17.4657C67.0667 17.4707 67.1672 17.4807 67.2576 17.6885C67.395 17.9967 67.9226 19.6784 67.8606 19.9581C67.5189 20.134 66.9494 20.0151 66.9829 20.4137C67.0114 20.7705 67.4536 20.6231 68.0985 20.6081C69.0248 20.5846 69.9226 20.6265 70.8338 20.6315C71.2794 20.6365 71.0432 20.5276 71.3179 20.593C71.5457 20.6449 74.0951 20.598 74.6278 20.6164C74.8422 20.6215 75.0935 20.6449 75.2978 20.6399C75.663 20.6399 75.6161 20.5595 75.5692 20.1792C74.663 19.804 74.3866 20.464 74.3631 18.8593C74.3531 18.3886 74.3062 16.6047 74.4067 16.2898C74.5357 16.1089 77.3414 16.1859 77.9159 16.1893L78.2626 16.2328C78.591 16.3752 78.4201 18.5595 78.41 19.0251C78.4 19.4807 78.395 19.8895 78.0298 20.0318C77.6412 20.1843 77.137 19.9648 77.3749 20.6198C77.7501 20.6667 79.9444 20.5863 80.807 20.6148C81.3581 20.6332 81.6144 20.8191 81.529 20.1926C80.864 19.7839 80.4368 20.5578 80.4184 18.6868C80.4134 17.8509 80.328 12.6617 80.5273 12.2144C80.7032 11.8292 81.1253 11.9916 81.4586 11.8107L81.4821 11.407C81.1638 11.3116 79.5876 11.402 79.142 11.397C77.4084 11.3869 77.1387 11.1407 77.2945 11.8426C78.2727 12.0235 78.3966 11.9096 78.41 13.0536C78.4201 13.4472 78.4904 15.1189 78.3531 15.3233C78.2727 15.4087 78.4285 15.3417 78.2157 15.4137C78.1353 15.4422 74.5457 15.5176 74.4117 15.3417C74.3112 15.0419 74.3548 13.5427 74.3648 13.1106C74.3933 11.397 74.9528 12.1843 75.3481 11.8191C75.4435 11.7337 75.4569 11.4774 75.333 11.397C75.2325 11.33 74.9243 11.3735 74.792 11.3786C73.7183 11.4221 71.9946 11.3216 71.2777 11.3786L71.2593 11.8392C72.2325 12.0486 72.3615 11.7538 72.3615 13.392V18.6868C72.3564 20.7337 71.8489 19.6885 71.2124 20.263C71.0985 20.0452 71.2794 20.1826 70.6328 20.0586C70.3581 20.0067 70.2241 19.9062 70.1052 19.7504C69.6965 19.2278 67.3129 11.6399 67.0616 11.2127C66.5156 11.1658 66.591 11.7823 65.6563 12.0101L65.6529 12.0134Z" fill="#1C3A64"/>
<path fill-rule="evenodd" clip-rule="evenodd" d="M115.693 16.1105C116.667 15.8157 117.725 16.2009 118.129 16.8843C118.566 17.6163 118.518 18.9212 117.997 19.5343C117.44 20.1842 116.087 20.2277 115.765 19.3534C115.6 18.9078 115.579 16.5661 115.693 16.1105ZM106.263 16.6465C106.183 16.3567 106.576 15.4304 106.69 15.0837C106.804 14.747 107.084 13.8341 107.231 13.6163C107.43 13.8626 108.243 16.3132 108.181 16.6783C107.782 16.7637 106.561 16.7972 106.263 16.6448V16.6465ZM115.973 12.0267C117.997 11.6465 118.631 14.221 117.43 15.1172C117.117 15.355 116.742 15.4204 116.263 15.4204C115.484 15.4204 115.636 15.3065 115.636 14.5661C115.636 14.082 115.641 13.5979 115.641 13.1138C115.636 12.6817 115.509 12.1122 115.973 12.0267ZM107.008 12.0083C106.928 12.8726 105.303 16.9413 104.891 18.0234C104.715 18.489 104.526 19.0066 104.311 19.4522C103.851 20.4153 103.186 19.9128 103.054 20.2646C102.836 20.8391 103.804 20.5929 104.668 20.5962C104.997 20.6013 105.333 20.6013 105.66 20.6147C106.121 20.6331 106.353 20.7671 106.219 20.1926C106.082 20.1071 105.456 19.9982 105.228 19.9128C105.189 19.5276 105.422 19.0066 105.536 18.6632L105.826 17.7805C105.935 17.4572 105.955 17.4488 106.956 17.4622C108.633 17.4857 108.481 17.2629 108.76 18.1658C108.874 18.5259 109.288 19.6281 109.216 19.9463C108.727 20.2261 108.204 19.9028 108.385 20.6113C109.734 20.5962 115.896 20.5678 116.32 20.6498C118.124 20.6498 119.891 20.3701 120.432 18.9497C120.74 18.1373 120.621 17.283 120.199 16.6515C119.909 16.2143 119.454 15.9296 118.921 15.7537C118.683 15.6733 118.476 15.6917 118.38 15.5108C118.66 15.3115 119.382 15.2679 119.819 14.5477C120.151 13.9966 120.119 13.1993 119.819 12.6247C119.012 11.0904 115.978 11.3182 114.268 11.4036C113.755 11.4321 112.702 11.3701 112.64 11.675C112.497 12.3299 113.481 11.7219 113.66 12.4823C113.769 12.9379 113.712 17.4438 113.712 18.6364C113.712 19.5996 113.802 19.8894 112.92 20.0853C112.407 20.1942 111.657 20.1524 111.372 19.6247C111.144 19.211 110.94 18.5091 110.764 18.0049L108.442 11.2864C108.124 10.9547 107.891 11.7939 107.008 12.0083Z" fill="#1C3A64"/>
<path fill-rule="evenodd" clip-rule="evenodd" d="M87.8591 14.6766C87.6363 15.6599 87.0902 16.0434 85.9361 15.9547C85.3331 15.9111 85.4989 15.4186 85.4989 14.8441C85.4989 14.3081 85.4989 13.7671 85.4939 13.2294C85.4939 12.7637 85.3566 12.0803 85.8306 12.0133C87.2075 11.814 88.2142 13.1238 87.8574 14.6766H87.8591ZM82.5324 11.5376L82.5174 11.9513C82.8122 12.0418 83.3063 11.9798 83.4671 12.293C83.6815 12.6917 83.586 17.9346 83.586 18.7453C83.576 20.5694 83.1154 19.7185 82.442 20.2076C82.3515 20.8056 82.6463 20.6347 83.1589 20.6163L85.5944 20.6063C86.2125 20.6247 86.6061 20.7537 86.6631 20.4639C86.7536 20.0083 86.241 20.1222 85.9077 20.0032C85.5509 19.8709 85.5324 19.5577 85.509 19.1255C85.4906 18.7168 85.4185 16.9312 85.5525 16.7034C85.6279 16.6029 85.705 16.5895 85.8809 16.5795C86.7971 16.546 86.7217 17.1825 87.3582 18.3835C87.8139 19.2377 88.236 20.0116 89.0768 20.4069C89.8457 20.7637 90.6631 20.7202 91.4839 20.6063L95.9479 20.6163C96.1991 19.9982 95.7334 20.1456 95.3063 20.0233C94.8926 19.8994 94.8607 19.5912 94.8356 19.1356C94.7921 18.2143 94.8256 17.2227 94.8256 16.2913C94.8256 15.7269 94.7452 12.6682 94.9395 12.2511C95.0869 11.9379 95.5609 11.9279 95.9797 11.8475L96.0031 11.3768L91.6731 11.3918L91.6547 11.8475C93.05 12.1423 92.8273 11.8659 92.8273 15.1808C92.8273 15.9932 92.9227 19.0987 92.7519 19.6532C92.6514 19.9614 92.4152 20.0183 92.0735 20.0803C91.5793 20.1707 91.7552 20.2846 91.2477 20.1272C89.8608 19.695 88.4604 16.2528 88.4755 16.0954C89.0551 15.6783 89.9244 15.4019 90.0333 14.1774C90.1371 12.9999 89.5257 12.293 88.8457 11.8793C88.0902 11.4237 86.9127 11.3617 85.8876 11.3667C85.2276 11.3667 82.973 11.3667 82.5358 11.5376H82.5324Z" fill="#1C3A64"/>
<path fill-rule="evenodd" clip-rule="evenodd" d="M51.4085 20.1709C51.313 20.3652 51.313 20.4171 51.4085 20.6131C51.499 20.6315 55.5727 20.6282 55.6347 20.6131C55.7301 20.4138 55.7017 20.4188 55.6732 20.1709C54.6715 19.8292 54.4822 20.3803 54.4672 18.804C54.4621 18.325 54.3583 16.5293 54.5526 16.2446C54.6816 16.1491 57.4387 16.1876 58.0132 16.1876C58.7251 16.1927 58.5308 16.2597 58.5157 18.7471C58.5006 20.4138 58.179 19.9062 57.447 20.1759C57.4186 20.4188 57.3901 20.4138 57.4856 20.6081C57.6715 20.66 60.1589 20.593 60.8608 20.6181C61.4487 20.6416 61.71 20.8174 61.6246 20.186C60.9412 19.8342 60.5224 20.4992 60.5191 18.6901C60.514 17.8258 60.4186 12.6935 60.628 12.2278C60.7988 11.8476 61.1975 11.985 61.5593 11.8191L61.5777 11.4054L57.3901 11.387L57.3666 11.8476C58.3834 12.0419 58.4923 11.871 58.5107 13.0587C58.5207 13.4808 58.6012 15.0955 58.4537 15.3384C58.3214 15.5042 57.8658 15.4422 57.561 15.4422C57.0199 15.4422 54.6832 15.5226 54.5308 15.3702C54.3985 15.2412 54.365 12.4791 54.6162 12.1223C54.7871 11.8895 55.2192 11.9414 55.4805 11.8141L55.499 11.4054L51.3817 11.387C51.1355 12.521 52.3934 11.1123 52.4588 12.8928C52.5107 14.402 52.4638 16.8526 52.4638 18.4674C52.4638 20.4339 52.236 19.8777 51.4052 20.1726L51.4085 20.1709Z" fill="#1C3A64"/>
<path fill-rule="evenodd" clip-rule="evenodd" d="M122.088 13.68C122.435 12.891 122.596 12.3266 123.522 12.1272C123.926 12.0418 126.172 11.9564 126.4 12.1222C126.485 12.2177 126.305 12.479 126.211 12.6398L125.199 14.2495C124.738 14.9714 124.268 15.6649 123.812 16.3718L121.39 20.0234C121.209 20.2797 120.764 20.6699 121.604 20.6163C123.742 20.4924 126.951 20.7252 129.03 20.6314C129.305 20.3232 129.661 18.7755 129.651 18.2344C129.043 17.9781 129.181 18.1959 128.691 18.9664C128.44 19.3601 128.164 19.6934 127.623 19.8492C127.058 20.0066 124.507 20.025 123.971 19.8441C123.953 19.4924 124.996 18.0066 125.216 17.6649C126.166 16.1557 127.936 13.3534 128.995 11.9664C129.127 11.7855 129.331 11.6381 129.269 11.4388C129.254 11.4287 129.231 11.4053 129.222 11.4204C129.217 11.4354 129.194 11.4053 129.179 11.4019C128.956 11.355 128.648 11.3919 128.415 11.3969C128.097 11.4019 127.784 11.4019 127.465 11.4019C126.901 11.407 123.03 11.4304 122.75 11.3634C122.284 11.2545 122.665 11.0066 122.114 11.0602C121.966 11.2746 121.814 12.3182 121.743 12.6364C121.596 13.278 121.226 13.809 122.085 13.6817L122.088 13.68Z" fill="#1C3A64"/>
<path fill-rule="evenodd" clip-rule="evenodd" d="M44.6379 17.9096C44.0634 17.8242 44.0784 18.057 44.2342 19.134C44.3012 19.5846 44.3632 20.1592 44.7468 20.3585C46.1237 21.0855 48.859 21.052 49.9746 19.5746C50.4922 18.8912 50.6396 17.7086 50.2359 16.8158C49.447 15.0737 47.0885 14.9883 46.457 13.6299C45.9629 12.5662 46.8992 11.7354 47.9143 11.8392C49.0684 11.9632 49.3917 13.2345 49.6228 13.6198C50.0734 13.6768 50.1455 13.6868 50.1304 13.2312C50.1203 12.9699 50.0969 12.6717 50.0634 12.4104C49.926 11.3619 49.8975 11.5411 49.3599 11.3937C48.4001 11.1273 47.2141 11.0905 46.2979 11.4372C45.4855 11.7404 44.8691 12.2915 44.6547 13.1994C44.0952 15.6299 46.6346 16.4004 47.5039 17.0402C50.1438 18.9816 47.3465 21.7605 45.2292 19.0352C44.9344 18.655 44.854 18.2379 44.6362 17.9096H44.6379Z" fill="#1C3A64"/>
<path fill-rule="evenodd" clip-rule="evenodd" d="M97.2046 17.9145C96.6351 17.819 96.6351 18.0519 96.801 19.144C96.873 19.5946 96.9299 20.1641 97.3135 20.3651C98.0639 20.7537 99.3169 20.9011 100.272 20.7637C101.297 20.6214 102.081 20.1842 102.546 19.5761C103.059 18.8978 103.201 17.7101 102.803 16.8224C102.005 15.0569 99.6971 15.0133 99.0237 13.6364C98.7808 13.1373 98.9383 12.5879 99.2097 12.278C99.8562 11.5426 101.166 11.618 101.922 13.0234C102.025 13.2177 102.092 13.4656 102.193 13.6214C102.724 13.6884 102.801 13.7252 102.635 12.4304C102.612 12.221 102.563 11.8793 102.511 11.7085C102.431 11.4338 102.245 11.4756 101.932 11.3952C100.198 10.9296 97.7339 11.1674 97.2365 13.1524C96.9701 14.216 97.3085 14.9849 97.9869 15.6783C98.9132 16.6281 101.776 17.34 101.046 19.3014C100.742 20.1222 99.6016 20.4689 98.6854 19.881C98.2968 19.6297 98.0773 19.3919 97.8076 19.0401C97.5128 18.6549 97.4274 18.2378 97.2097 17.9145H97.2046Z" fill="#1C3A64"/>
<path fill-rule="evenodd" clip-rule="evenodd" d="M120.807 24.7671C120.773 24.1641 120.792 22.9765 121.164 22.6398C121.487 22.345 121.852 22.5644 122 22.8827C122.303 23.5427 122.351 25.5745 121.814 26.0267C121.115 26.6197 120.835 25.3517 120.807 24.7688V24.7671ZM119.948 24.876C120.299 27.2445 123.556 26.8844 123.058 23.7738C122.688 21.4472 119.492 21.7604 119.948 24.876Z" fill="#1C3A64"/>
<path fill-rule="evenodd" clip-rule="evenodd" d="M116.71 23.536C116.782 23.3366 116.801 22.3199 117.759 22.5443C118.315 22.6683 118.357 23.4087 118.129 23.9547C117.687 25.0134 116.586 25.8877 116.396 26.3199H119.102L119.434 25.0418C119.126 25.2278 119.258 25.5259 118.707 25.5778C118.432 25.6013 117.796 25.5963 117.524 25.5678C117.672 25.4958 118.451 24.7839 118.588 24.6331C118.878 24.3249 119.263 23.8593 119.158 23.2127C119.077 22.6851 118.588 22.3668 118.019 22.2864C117.245 22.1725 116.937 22.4154 116.414 22.6331L116.665 23.469C116.665 23.479 116.684 23.5125 116.684 23.5025C116.689 23.4924 116.699 23.5259 116.707 23.536H116.71Z" fill="#1C3A64"/>
<path fill-rule="evenodd" clip-rule="evenodd" d="M123.789 23.536C123.861 23.3316 123.884 22.3199 124.837 22.5393C125.383 22.6683 125.435 23.4036 125.202 23.9547C124.975 24.4958 124.31 25.3701 123.901 25.7688C123.754 25.9162 123.544 26.1256 123.469 26.3249L126.181 26.3199L126.509 25.0469C126.209 25.2177 126.333 25.5259 125.787 25.5779C125.507 25.6013 124.881 25.5963 124.604 25.5678L125.663 24.6281C126.688 23.5025 126.29 22.4489 125.099 22.283C124.32 22.1792 124.016 22.412 123.494 22.6348L123.789 23.5377V23.536Z" fill="#1C3A64"/>
<path fill-rule="evenodd" clip-rule="evenodd" d="M82.5746 24.2011C82.727 24.32 82.66 24.263 82.7605 24.4289C82.8125 24.5093 82.8644 24.6047 82.9079 24.6751C83.8426 26.2513 83.7538 26.2982 84.2095 25.5394C84.3954 25.2262 84.8878 24.3284 85.0587 24.1676L85.0637 26.3803L85.5059 26.3954L85.4775 23.2195L85.1257 23.2295L83.8192 25.3987L82.7371 23.6181C82.5227 23.248 82.6232 23.2245 82.124 23.2245V26.4054L82.5696 26.3619L82.5746 24.2011Z" fill="#1C3A64"/>
<path fill-rule="evenodd" clip-rule="evenodd" d="M127.526 24.5996C127.658 24.3618 127.787 24.2763 128.005 24.072C128.175 23.9112 128.284 23.7303 128.465 23.5879L128.499 24.6046L127.526 24.5996ZM130 24.4572C129.985 24.4623 129.971 24.4757 129.956 24.4857C129.946 24.4907 129.928 24.5041 129.913 24.5092C129.685 24.6415 129.661 24.6231 129.366 24.6231L129.361 22.2629C129.134 22.3534 128.891 22.737 128.663 22.9464L127.356 24.3752C127.1 24.6465 126.872 24.7738 126.715 25.1155L128.495 25.1256C128.524 25.4489 128.591 26.0083 128.382 26.1792C128.32 26.2261 128.296 26.2261 128.239 26.2596L129.735 26.3065C129.526 26.1641 129.388 26.2211 129.365 25.8794C129.35 25.68 129.36 25.3199 129.38 25.1155L129.869 25.1105L129.998 24.4556L130 24.4572Z" fill="#1C3A64"/>
<path fill-rule="evenodd" clip-rule="evenodd" d="M63.8623 23.6266C65.5474 23.2463 65.9226 25.707 64.4268 26.0001C62.7551 26.3234 62.323 23.9767 63.8623 23.6266ZM62.4804 25.0989C62.8037 27.0738 66.132 26.7991 65.8138 24.5428C65.529 22.506 62.1153 22.8426 62.4804 25.0989Z" fill="#1C3A64"/>
<path fill-rule="evenodd" clip-rule="evenodd" d="M72.3667 25.047L72.3617 23.6232C73.0552 23.6232 74.0133 23.4992 74.0133 24.3217C74.0133 25.1441 73.1255 25.0486 72.3651 25.0486L72.3667 25.047ZM73.7956 25.3786C74.0619 25.1073 74.3131 25.1408 74.4371 24.6383C74.7939 23.1659 73.0418 23.1039 71.9111 23.2379V26.3904L72.3718 26.3669V25.4356L73.3399 25.4406C73.4689 25.5729 73.9379 26.248 73.9999 26.3954L74.5024 26.3853C74.4019 26.1626 73.9614 25.583 73.7956 25.3786Z" fill="#1C3A64"/>
<path fill-rule="evenodd" clip-rule="evenodd" d="M53.5357 23.6215C55.1839 23.2648 55.6245 25.7103 54.0633 26.0051C52.3967 26.3133 51.9746 23.9633 53.5357 23.6215ZM52.1203 24.9901C52.3297 27.0654 55.663 26.851 55.4821 24.6718C55.3062 22.5679 51.8925 22.7673 52.1203 24.9901Z" fill="#1C3A64"/>
<path fill-rule="evenodd" clip-rule="evenodd" d="M44.7985 23.6266L46.569 23.6216L46.5607 23.2229H44.3513L44.3379 26.3954H46.6411L46.636 25.9917H44.7985V24.98L46.3597 24.975L46.3798 24.5864H44.8036L44.7985 24.1542V23.6266Z" fill="#1C3A64"/>
<path fill-rule="evenodd" clip-rule="evenodd" d="M98.2533 23.6265C98.8664 23.6265 99.6687 23.5226 99.853 24.0637C100.218 25.1508 98.8798 25.0419 98.2533 25.0419V23.6265ZM98.2583 25.4405C98.7893 25.4405 99.3974 25.4975 99.8245 25.2697C100.166 25.0888 100.428 24.6717 100.337 24.1307C100.156 23.0486 98.9032 23.2245 97.796 23.2245L97.791 26.4003L98.2517 26.3903L98.2567 25.4405H98.2583Z" fill="#1C3A64"/>
<path fill-rule="evenodd" clip-rule="evenodd" d="M94.7455 23.7605C94.784 23.799 94.7555 23.7504 94.8175 23.856L95.4105 25.2328L94.0855 25.2144L94.7455 23.7622V23.7605ZM93.5813 26.3903C93.6198 26.2613 93.8761 25.6064 93.9666 25.6014L95.5997 25.6064L95.923 26.3853L96.4071 26.3803C96.2312 25.8911 95.9046 25.2362 95.6667 24.737C94.9599 23.2513 95.2061 23.2278 94.5327 23.2178L93.1123 26.3937L93.583 26.3886L93.5813 26.3903Z" fill="#1C3A64"/>
<path fill-rule="evenodd" clip-rule="evenodd" d="M108.827 23.7221L109.474 25.2363L108.135 25.2263L108.829 23.7204L108.827 23.7221ZM107.963 25.6065L109.63 25.6115C109.816 25.8443 109.819 26.243 110.075 26.4005L110.479 26.3854L109.017 23.2229H108.584L107.169 26.3954L107.63 26.3904L107.961 25.6065H107.963Z" fill="#1C3A64"/>
<path fill-rule="evenodd" clip-rule="evenodd" d="M78.1309 26.067C80.0773 27.2111 81.2364 25.4824 80.2012 24.871C79.764 24.6097 78.625 24.6047 78.6535 24.0503C78.6719 23.722 79.0136 23.5947 79.3603 23.5846C79.821 23.5695 79.9634 23.7086 80.3051 23.8225L80.4139 23.4372C78.3771 22.4975 77.3888 24.4255 78.9332 24.9179C79.4608 25.0888 79.6602 25.0318 80.0823 25.3601C80.1543 25.9012 79.888 26.0385 79.3603 26.0436C78.9047 26.0486 78.5999 25.8543 78.2783 25.7019L78.1309 26.067Z" fill="#1C3A64"/>
<path fill-rule="evenodd" clip-rule="evenodd" d="M67.4234 25.2411C67.348 26.7989 70.0583 26.8692 70.0499 25.2746V23.2478H69.6747L69.6646 25.1037C69.4603 26.3667 67.998 26.3667 67.8221 24.9949C67.7936 24.7671 67.8271 24.4672 67.8271 24.2629C67.8321 23.9262 67.8271 23.5878 67.8271 23.2512H67.4335L67.4234 25.2411Z" fill="#1C3A64"/>
<path fill-rule="evenodd" clip-rule="evenodd" d="M91.7722 25.6583C91.0033 26.4221 89.6399 25.9246 89.6784 24.7655C89.7069 23.9481 90.6097 23.0938 91.8007 23.9531L92.072 23.7069C91.5879 22.7722 89.2043 23.0368 89.2228 24.8224C89.2378 26.6499 91.5594 26.7638 92.0804 25.933C91.9849 25.7755 91.9481 25.7387 91.7722 25.6583Z" fill="#1C3A64"/>
<path fill-rule="evenodd" clip-rule="evenodd" d="M50.5958 25.6735C48.7583 26.9884 47.6277 24.3067 49.229 23.6785C49.951 23.3938 50.3597 23.8209 50.5958 23.9448C50.7717 23.8494 50.8103 23.8309 50.8806 23.6316C49.4702 22.5964 47.961 23.4943 48.0079 24.8812C48.0598 26.4289 50.0967 26.9365 50.8756 25.9264L50.5958 25.6752V25.6735Z" fill="#1C3A64"/>
<path fill-rule="evenodd" clip-rule="evenodd" d="M105.323 23.6266L106.397 23.6182L106.373 23.2229H103.775L103.799 23.6266H104.849V26.3854L105.305 26.3954L105.323 23.6266Z" fill="#1C3A64"/>
<path fill-rule="evenodd" clip-rule="evenodd" d="M59.8271 26.3953L60.2827 26.3752V23.6265H61.3312L61.3413 23.2178L58.7483 23.2278L58.7383 23.6181L59.817 23.6365L59.8271 26.3953Z" fill="#1C3A64"/>
<path fill-rule="evenodd" clip-rule="evenodd" d="M111.858 26.3954L114.032 26.3854L114.022 25.9968L112.313 25.9917L112.29 23.2229H111.871L111.853 26.2145L111.858 26.3954Z" fill="#1C3A64"/>
<path fill-rule="evenodd" clip-rule="evenodd" d="M76.1084 26.3954L76.5674 26.3854V23.243L76.1084 23.2229V26.1056V26.3954Z" fill="#1C3A64"/>
<path fill-rule="evenodd" clip-rule="evenodd" d="M101.928 26.3954H102.383L102.365 23.2229H101.943L101.928 25.769V26.3954Z" fill="#1C3A64"/>
</g>
<defs>
<clipPath id="clip0_438_232">
<rect width="130" height="37.5008" fill="white"/>
</clipPath>
</defs>
</svg>
