<svg width="130" height="38" viewBox="0 0 130 38" fill="none" xmlns="http://www.w3.org/2000/svg">
<path fill-rule="evenodd" clip-rule="evenodd" d="M18.3567 10.9899C19.0786 10.8995 20.0234 11.0938 20.6029 11.3417C21.4907 11.7219 22.288 12.3819 22.8056 13.1223C24.087 14.9547 24.226 17.3199 23.0853 19.2328C22.7821 19.7454 22.3249 20.2864 21.8558 20.6482C21.0066 21.3032 20.2796 21.6733 19.0502 21.7638C17.1942 21.8961 15.618 21.0519 14.5543 19.6415C13.9229 18.8006 13.6096 17.8325 13.5141 16.7219C13.3852 15.2697 13.9078 13.7822 14.8525 12.7671C15.4404 12.1256 15.4991 12.0603 16.3014 11.5661C16.9513 11.1675 17.6498 11.082 18.3567 10.9916V10.9899ZM18.1909 22.7604C18.2244 22.9547 18.2143 28.5812 18.2009 28.6532C18.1825 28.7387 18.0636 28.881 18.0066 29.01C17.8307 29.3986 17.5895 30.0971 17.2277 30.3919C17.1758 30.0787 17.2428 27.814 17.2378 27.2579C17.2378 26.6934 17.2528 26.3316 17.0049 25.8995C16.4739 24.9681 15.1724 24.2194 14.1557 23.933C13.7051 23.804 13.3584 23.7286 12.8542 23.6532C12.6264 23.6197 12.3935 23.5862 12.1507 23.5578C11.9078 23.5343 11.6716 23.4774 11.4337 23.4489C11.5527 23.814 12.1038 24.412 12.3969 24.6599C13.6649 25.7085 15.8106 25.1826 16.0669 26.3735C16.2947 27.4137 16.1004 28.3869 16.0904 29.4171C16.0853 30.144 16.0853 30.7269 15.6917 31.1692C14.9229 32.0285 13.4505 30.6181 12.5912 30.4656C12.4873 30.9162 12.0267 31.2914 11.5895 31.4489C10.5778 31.8006 9.18751 31.4824 8.18081 31.2161C7.99488 31.1692 6.70342 30.8224 6.64312 30.7789C6.58114 30.7219 6.54262 30.2847 6.52419 30.1943C6.28131 28.9882 5.62637 27.2546 6.38684 26.0737C6.33491 26.0016 6.27294 25.9732 6.19756 25.8978C5.97478 25.68 5.84077 25.4037 5.63307 25.2998C5.31481 25.4941 5.09203 26.3199 5.02503 26.7152C4.86423 27.7504 5.16741 29.2278 5.34329 30.2764C5.44379 30.8609 5.51414 31.4355 5.61464 32.0184C6.63139 32.0854 6.55434 32 7.66155 32.2563C8.80057 32.5276 10.3818 33.1675 11.4371 32.8442C11.9647 32.6834 12.6096 32.2462 12.7805 31.8995C13.412 31.9715 15.6381 33.2345 17.2679 32.0083C17.3718 31.933 17.4907 31.8425 17.5677 31.7621C17.6632 31.6583 17.7671 31.5728 17.8525 31.4673C18.1088 31.149 18.5795 30.546 18.7453 30.1038C18.8357 30.1558 18.8257 30.1759 18.9162 30.2847C19.2579 30.7219 19.6615 31.3584 20.0133 31.6566C20.4404 32.0217 21.3718 32.335 22.0736 32.4305V31.2998C21.9363 31.1859 21.4036 31.0385 21.2997 30.3936C21.2277 29.933 21.1674 27.6214 21.2143 27.1608C21.2813 26.5109 21.2294 26.2345 21.6314 25.8743C21.9162 25.613 22.4488 25.5511 22.881 25.4522C23.3835 25.3333 23.7738 25.2529 24.2193 25.0821C24.7218 24.8877 24.9128 24.7353 25.2361 24.4271C25.4455 24.2228 25.8056 23.7671 25.958 23.464C25.7017 23.4305 23.6783 23.7872 23.2713 23.9196C22.1741 24.2764 21.0066 24.8743 20.427 25.8241C20.1473 26.2898 20.1557 26.5125 20.1607 27.134C20.1657 27.5795 20.2461 30.0452 20.1222 30.2395C20.1172 30.2395 20.1071 30.2244 20.1038 30.2295L20.0418 30.1675C19.7001 29.7504 19.5677 28.8191 19.1775 28.5728V22.7571C20.0267 22.7286 20.948 22.4104 21.561 22.0586C21.8927 21.8727 22.1925 21.665 22.4672 21.4405C25.288 19.1373 25.6398 14.9263 23.3785 12.2194C23.0083 11.7772 23.0133 11.7872 22.618 11.4305C22.2043 11.0552 21.7403 10.747 21.2227 10.5092C19.7034 9.80232 17.6766 9.77719 16.1607 10.5142C15.5242 10.8224 15.278 11.0134 14.7788 11.412L14.3751 11.7973C13.3634 12.9279 12.6515 14.0335 12.5426 16.1139C12.4672 17.4439 12.8458 18.7202 13.4739 19.7789C13.5694 19.9397 13.6833 20.0871 13.7821 20.2295C13.8575 20.33 13.8726 20.3668 13.948 20.4623C14.015 20.5477 14.0619 20.5862 14.1339 20.6717C14.4572 21.0603 14.9178 21.4606 15.3399 21.7487C15.8106 22.077 16.3081 22.3233 16.8927 22.5125C17.4907 22.7068 17.7001 22.6733 18.1942 22.7588L18.1909 22.7604Z" fill="#4C89C5"/>
<path fill-rule="evenodd" clip-rule="evenodd" d="M25.1693 25.8861C25.1693 26.7119 26.0387 28.0084 25.2363 29.665C24.6769 30.8241 23.702 31.2311 22.4641 31.3987C22.4072 32.6198 22.7958 33.4255 21.3251 34.3048C20.5412 34.7755 19.6919 35.1072 18.908 35.7253C18.8326 35.7822 18.8226 35.8057 18.7506 35.8492C18.6132 35.7873 18.1475 35.3652 17.7958 35.1507C16.5144 34.3668 16.1727 34.6281 15.4457 33.3936C15.3452 33.2177 15.2564 33.005 15.1609 32.866C14.8092 32.8476 14.444 32.7856 14.1157 32.8559C14.1676 34.2797 15.1978 35.0452 16.0537 35.5812C16.5429 35.8844 17.032 36.1457 17.4976 36.4506C17.7204 36.603 17.9583 36.7789 18.1526 36.9531L18.779 37.5042C19.1358 37.2043 19.2531 36.8861 20.0521 36.3501C21.0973 35.6466 22.4541 35.2965 23.0236 34.3886C23.4038 33.7755 23.4172 33.1926 23.4658 32.3702C24.4256 32.0419 25.114 31.9564 25.8393 30.9983C26.3955 30.2663 26.6986 29.2563 26.7037 28.0787L26.5043 26.4975C27.0353 26.6214 27.1509 26.7822 27.8192 26.7873C28.4373 26.7873 29.0973 26.6918 29.6383 26.5159C30.2129 26.335 30.6115 26.0703 30.8594 25.6415C30.8075 25.4757 30.5362 25.2713 30.3703 25.1625C29.8142 24.8107 29.8109 25.3199 29.0353 25.5193C28.2045 25.7337 27.1928 25.4523 26.4055 25.2579C25.769 25.1055 25.171 25.1574 25.171 25.8844L25.1693 25.8861Z" fill="white"/>
<path fill-rule="evenodd" clip-rule="evenodd" d="M0 18.6735C0.0435511 18.8594 0.375209 19.0487 0.60804 19.253C2.04188 20.521 2.56951 23.4021 4.78224 23.5646C5.59464 23.6266 5.067 23.5746 5.85092 24.9029C7.00503 26.8594 8.80904 27.0587 11.0117 26.5361C11.0268 27.0721 10.7688 27.7237 10.8744 28.9297C10.9263 29.5328 11.1491 30.4205 11.6248 30.7622C11.8342 30.7153 12.4137 30.1777 12.3367 29.8979C12.1323 29.1341 11.7956 28.6065 11.9615 27.5864C12.062 26.9498 12.8074 25.4457 11.7672 25.2648C10.799 25.0939 10.4707 26.0051 9.10385 25.8209C8.44891 25.7304 8.01675 25.3988 7.64657 25.0889C7.29983 24.7941 6.9866 24.3485 6.70687 23.8678C6.40704 23.3653 6.28476 22.8996 6.08543 22.3016C5.38191 22.32 5.00838 22.5629 4.30988 22.2782C3.68342 22.0219 3.59296 21.7656 3.25628 21.2614C2.77722 20.5445 2.75377 20.1978 2.08375 19.3334C1.97487 19.186 1.70352 18.8778 1.63819 18.7354C1.70519 18.6349 1.8526 18.4892 2.00838 18.2413C2.44556 17.5579 2.8392 16.7974 3.28643 16.0805C3.77554 15.2882 4.08878 15.3016 4.82077 15.0319C4.8593 14.6467 4.99665 14.2346 4.96315 13.8359C3.95142 13.789 3.12563 14.4239 2.59799 15.1224C2.42714 15.3502 1.50084 16.9465 1.20268 17.4055C1.03685 17.6517 0.871022 17.8895 0.690117 18.1123C0.59464 18.2262 0.509213 18.3267 0.400335 18.4306C0.229481 18.5964 0.247906 18.5679 0.00670017 18.6735H0Z" fill="white"/>
<path fill-rule="evenodd" clip-rule="evenodd" d="M10.8359 9.17756C10.8359 9.56281 10.9314 10.2931 10.9733 10.7119C10.042 10.5796 9.90462 10.3032 8.61819 10.526C8.248 10.593 7.93477 10.6918 7.62656 10.8392C7.38871 10.9481 6.93812 11.2094 6.82422 11.3668C7.01015 11.6616 7.1475 11.8224 7.46073 12.0033C7.65001 12.1173 7.72204 12.0318 7.91635 11.9514C8.92807 11.5092 9.30831 11.3953 10.5562 11.804C10.8694 11.9045 11.2681 12.0653 11.6299 12.0419C11.99 12.0184 12.2798 11.7621 12.3234 11.4238C12.4138 10.6918 11.4591 9.63317 12.1659 7.9196C12.5746 6.92295 13.4524 6.48576 14.449 6.24791C15.3753 6.03015 15.1525 6.32831 15.1324 5.27973C15.1174 4.49581 15.5026 3.88442 16.0101 3.42714C16.2815 3.1809 16.7271 2.91457 17.1123 2.72864C17.506 2.53936 17.9247 2.30151 18.2748 2.06868C18.8594 1.68844 18.5411 1.54606 19.9515 2.46231C20.5026 2.82245 21.176 3.03183 21.6601 3.46399C22.0118 3.77722 22.1207 4.07705 22.2966 4.64154L22.5813 4.68844C22.7003 4.69347 22.8242 4.69849 22.9381 4.71692C23.1559 4.74539 23.3368 4.85427 23.4892 4.87772C23.4741 4.16583 23.2564 3.50586 22.9381 3.0402C22.4105 2.26633 21.6132 2.1005 20.7639 1.61977C20.3502 1.39196 20.3217 1.28811 20.2329 1.23953C19.8292 1.01675 19.7673 1.02178 19.3586 0.61809C19.2061 0.470687 18.8795 0.0820771 18.7505 0C18.5981 0.080402 18.6081 0.137353 18.4993 0.279732C18.4239 0.380235 18.3184 0.484087 18.238 0.569514C16.7237 2.13568 14.8761 2.17923 14.2313 4.01675C14.1458 4.26298 14.0503 4.59631 14.0219 4.87102C13.9783 5.22781 14.1224 5.15578 13.4339 5.34506C11.7723 5.8057 10.8359 7.22613 10.8359 9.17253V9.17756Z" fill="white"/>
<path fill-rule="evenodd" clip-rule="evenodd" d="M28.7018 11.4221C29.7604 11.4221 30.2076 11.9347 30.6147 12.5846C31.35 13.7471 31.1373 14.4791 31.412 14.8493C32.2043 14.8593 32.5326 14.6549 33.2545 15.0352C33.6633 15.2496 34.0334 15.7387 34.3132 16.1039C34.5979 16.4791 35.6901 18.2312 35.9045 18.7337C35.809 18.8761 35.4204 19.0419 35.0066 19.8023C34.7353 20.3099 34.6415 20.6566 34.2746 21.0469C33.804 21.5461 33.4388 21.7454 32.8308 22.072C32.6783 22.1524 32.7118 22.2429 32.6834 22.4372C32.6448 22.665 32.5544 23.1122 32.5594 23.3199C34.4254 23.3099 35.3601 21.4154 36.4103 20.0486C36.5008 19.9347 36.5762 19.8342 36.6616 19.7253C36.7621 19.6013 36.8475 19.5109 36.9413 19.397L37.3735 18.9414C37.4455 18.866 37.474 18.8744 37.5209 18.794C37.3835 18.5377 37.1641 18.263 36.9932 18.0151C36.5996 17.4355 35.7202 16.263 35.3031 15.7789C34.9949 15.4221 34.7286 15.0804 34.3919 14.7437C34.0736 14.4305 33.7219 14.0452 33.3333 13.8275C32.7822 13.5193 32.3266 13.6985 32.2076 13.6382C32.0937 13.5092 32.0318 13.2295 31.9614 13.0352C31.752 12.4707 31.4103 11.7621 31.0267 11.3551C30.3617 10.6382 29.7252 10.2781 28.6097 10.273C27.5326 10.268 27.1289 10.5394 26.3584 10.6951C26.4304 9.9062 26.6013 9.23786 26.4958 8.39699C26.4153 7.7186 26.1205 6.98158 25.7788 6.55444C25.5979 6.59799 25.2478 7.02848 25.1524 7.24289C25.0385 7.48912 25.3048 8.00335 25.3952 8.24456C25.6984 9.03686 25.5527 9.74037 25.3902 10.5528C25.2009 11.5159 25.4371 12.0536 26.4824 11.8593C27.2177 11.7169 27.8978 11.4221 28.7001 11.4221H28.7018Z" fill="white"/>
<path fill-rule="evenodd" clip-rule="evenodd" d="M5.46593 5.57775C5.56978 7.55262 5.37547 7.52415 5.00529 9.30974C4.86794 9.96468 4.77749 10.5593 4.96174 11.2143C5.09407 11.685 5.4408 12.3483 5.72221 12.5777C5.70378 12.7955 5.5279 13.2042 5.4475 13.4086C5.09072 14.3432 5.03377 15.3499 5.37547 16.2813C5.57983 16.8374 5.93996 17.2595 6.27832 17.5962C6.43913 17.757 6.68703 17.9563 6.88636 18.1188C7.10077 18.2896 7.30847 18.4555 7.51283 18.6129C7.41735 18.7268 7.22305 18.7938 7.06727 18.8642C5.98016 19.3868 5.21467 20.6582 5.13929 21.9128L6.2264 21.8324C6.5681 20.6498 7.12924 20.1372 8.19289 19.6816C8.62506 19.4957 9.2331 19.1975 9.19959 18.6129C9.14264 17.7352 8.33527 17.8809 7.48603 17.2461C6.17949 16.2628 5.86626 15.3181 6.53628 13.7319C6.63176 13.5091 6.76911 13.2377 6.87799 13.0384C6.99189 12.824 7.14934 12.5777 7.24315 12.3734C7.08569 12.1556 6.58318 11.8458 6.26995 11.4287C5.62338 10.5694 6.01869 9.30137 6.29842 8.31812L6.68368 6.76033C7.59491 6.5744 8.28837 6.29969 9.13427 6.07189C9.5145 5.96803 10.0271 5.829 10.4542 5.88261C11.0287 5.95463 11.3034 6.28629 11.5363 6.37172C11.6887 6.23939 11.7507 6.09701 11.8964 5.97306C12.0287 5.85915 12.1761 5.74023 12.3051 5.61627C12.2096 5.28797 11.4308 4.91276 10.9852 4.82398C9.81769 4.59115 8.49775 5.17071 7.40563 5.44207C6.63176 5.63637 6.2666 5.59952 5.4676 5.57942L5.46593 5.57775Z" fill="#4C89C5"/>
<path fill-rule="evenodd" clip-rule="evenodd" d="M30.459 24.7706C30.8962 24.9129 31.3132 25.3451 31.5076 25.7304C32.201 27.0737 31.057 29.1022 30.9565 30.8828C29.8124 30.9732 28.4774 31.6751 27.1491 31.6382C26.3886 31.6148 26.2663 31.325 26.0469 31.2161C25.99 31.2915 25.6298 31.5913 25.4255 31.8376C25.3685 31.9046 25.3869 31.8711 25.3501 31.9464C25.6064 32.2412 26.1575 32.5026 26.67 32.6114C27.2781 32.7404 27.933 32.6969 28.5511 32.6165C29.7102 32.464 30.7638 32.1508 31.9464 32.0235C32.0034 31.7237 32.0084 31.3401 32.0653 31.0118C32.2178 30.067 32.4875 29.1072 32.6499 28.1625C32.8392 27.0469 32.9012 25.8124 32.1843 24.8761C32.0888 24.7471 32.0034 24.6717 31.9179 24.5478C32.2747 22.9665 32.8576 20.9196 31.33 19.5193C30.9983 19.2061 30.5461 18.8727 30.0151 18.6701C30.2044 18.4238 31.4925 17.6734 32.0184 16.387C32.1189 16.1407 32.3082 15.5377 32.2931 15.2429C32.0838 15.258 31.5293 15.2865 31.3534 15.3283C31.201 15.3669 31.3065 15.3183 31.1926 15.6851C31.1491 15.8275 31.1072 15.9565 31.0452 16.0888C30.4422 17.4322 29.2881 17.5227 28.7521 18.0553C28.2781 18.526 28.33 19.052 28.8945 19.3987C29.1173 19.5361 29.3685 19.6366 29.6114 19.7505C30.2663 20.0503 30.9179 20.6567 31.1541 21.402C31.4389 22.2999 31.1776 23.2211 30.8124 24.0419C30.722 24.2412 30.5092 24.6014 30.4607 24.7739L30.459 24.7706Z" fill="#4C89C5"/>
<path fill-rule="evenodd" clip-rule="evenodd" d="M24.7133 5.66836C23.9344 5.43553 23.0132 4.43385 21.1421 5.17422C20.5575 5.40705 20.1254 5.73368 19.7468 6.06199C19.5659 6.21944 19.3716 6.4506 19.2108 6.68343C19.045 6.92966 18.9445 7.16249 18.8121 7.43385C18.7033 7.35345 18.6363 7.12062 18.5659 6.98829C18.3096 6.5176 17.9813 6.18594 17.5492 5.87271C17.0081 5.48745 16.3147 5.11727 15.4453 5.10889C15.4453 5.44558 15.4453 5.78393 15.5408 6.08712C15.5927 6.26802 15.6262 6.27305 15.8021 6.33837C16.4671 6.5846 17.0751 6.69516 17.5257 7.29817C17.854 7.73536 17.9914 8.23285 18.3381 8.5846C18.9797 9.22615 19.2359 8.68846 19.5157 8.2094C20.0182 7.33502 20.5559 6.40035 21.6899 6.15747C22.3264 6.02012 22.9579 6.13904 23.5173 6.32832C23.7451 6.4037 24.1019 6.5377 24.2527 6.65663C24.4235 6.78561 24.6229 7.09382 24.8992 7.08879C25.2879 6.83251 25.3498 6.22447 25.9059 5.92631C26.447 5.64156 27.1304 5.69348 27.7585 5.83586C28.921 6.10219 29.9478 6.62481 31.1823 6.75713C31.2778 7.00839 31.2862 8.00672 31.3348 8.3769C31.4018 8.88946 31.5492 9.36015 31.6145 9.85764C31.6999 10.4757 31.591 10.8459 31.4905 11.4205C31.457 11.6349 31.5374 11.6064 31.7803 11.9766C31.9093 12.1658 31.9612 12.3283 32.0701 12.5461C32.782 11.1541 32.5207 10.866 32.3984 9.2697C32.3515 8.64826 32.318 8.09214 32.2326 7.47908C32.1606 6.92799 32.2477 6.09717 32.1321 5.62648C29.7301 5.52263 26.2443 3.77388 24.9629 5.31325C24.8825 5.40873 24.8054 5.57455 24.7167 5.67003L24.7133 5.66836Z" fill="#4C89C5"/>
<path fill-rule="evenodd" clip-rule="evenodd" d="M22.9249 17.965L21.9048 17.97C21.677 18.5965 21.007 19.2514 20.4325 19.5931C19.1929 20.3385 17.5933 20.2062 16.4492 19.2045C16.3973 19.1576 16.3772 19.1576 16.3303 19.1141C15.5749 18.4307 15.1192 17.4055 15.1427 16.3603C15.1762 14.9315 15.9501 13.5831 17.2365 12.9851C18.2616 12.5144 19.5162 12.6333 20.404 13.1225C20.5464 13.1978 20.7273 13.3318 20.8462 13.4407C21.1075 13.6685 20.9266 13.4692 21.2549 13.826C21.6536 14.2581 21.7105 14.5144 21.8864 14.7757C22.0472 14.8042 22.7893 14.8092 22.94 14.7707C22.5799 14.0437 22.7976 14.2766 22.2181 13.4407C22.0137 13.1459 21.6151 12.7472 21.3253 12.5379C21.2683 12.4993 21.2298 12.4625 21.1678 12.4189C19.8713 11.4977 17.7541 11.3838 16.3671 12.3335C16.2867 12.3905 16.2951 12.3771 16.2147 12.424L15.7826 12.7807C15.5933 12.9566 15.6787 12.8377 15.5263 13.0421C15.4509 13.1426 15.2415 13.3134 15.0472 13.5982C14.4777 14.4441 14.1645 15.2749 14.1695 16.362C14.1745 17.4441 14.5682 18.6501 15.2516 19.434C15.4224 19.6283 15.5414 19.7657 15.7591 19.9566L16.1762 20.3034C17.543 21.372 19.7273 21.3385 21.1527 20.3503C21.5615 20.0705 21.7742 19.8427 22.079 19.4759C22.3789 19.1191 22.8244 18.5077 22.9249 17.9667V17.965Z" fill="white"/>
<path fill-rule="evenodd" clip-rule="evenodd" d="M17.0791 15.2931C17.126 15.0988 17.5246 14.737 17.6971 14.6381C17.9819 14.4673 18.2901 14.3634 18.6888 14.3634C19.3588 14.3634 20.0941 14.814 20.27 15.2981C20.0271 15.3366 17.2549 15.3366 17.0791 15.2931ZM20.3655 17.3098C20.1193 17.6616 20.0422 17.8944 19.5531 18.1641C18.7457 18.6096 18.0054 18.3869 17.3638 17.8358C17.0121 17.5326 16.6703 16.876 16.7658 16.3584L21.5665 16.3534C21.5849 16.149 21.528 15.8927 21.4911 15.7118C21.3437 15.0234 20.9166 14.2964 20.3521 13.9028C19.873 13.5661 19.3504 13.3282 18.6904 13.3517C18.2482 13.3668 17.8362 13.4271 17.4844 13.6029C15.7658 14.4488 15.3052 16.6515 16.2784 18.0669C17.2382 19.4539 18.9936 19.8241 20.3186 18.8693C20.7223 18.5795 21.1075 18.0669 21.3102 17.6063C21.4425 17.3115 21.4995 17.2981 21.1243 17.3031C20.868 17.3081 20.6167 17.2931 20.3638 17.3081L20.3655 17.3098Z" fill="white"/>
<path fill-rule="evenodd" clip-rule="evenodd" d="M23.7604 23.6064C23.8894 23.5629 23.9312 23.4774 24.0116 23.3602C24.0686 23.2697 24.1406 23.1089 24.1825 23.0084C24.4153 22.4724 24.7336 20.8392 24.3818 20.4958C23.9078 20.6952 23.5175 22.9515 23.7604 23.6064Z" fill="#4C89C5"/>
<path fill-rule="evenodd" clip-rule="evenodd" d="M13.6031 23.6014C13.8594 23.3401 13.5881 21.1709 13.1241 20.5863C13.0437 20.4858 13.0855 20.5193 12.9817 20.4958C12.64 20.9984 13.0822 23.4154 13.6031 23.6014Z" fill="#4C89C5"/>
<path fill-rule="evenodd" clip-rule="evenodd" d="M10.3748 17.7571C10.3413 18.1994 10.693 19.3233 10.9493 19.7705C11.0532 19.9464 11.1771 20.2128 11.3949 20.2312C11.4569 19.4288 11.152 18.1139 10.7249 17.4439C10.6394 17.3066 10.611 17.2161 10.4301 17.2061L10.3731 17.7571H10.3748Z" fill="#4C89C5"/>
<path fill-rule="evenodd" clip-rule="evenodd" d="M25.6919 21.6215C25.9381 21.6449 26.243 21.4121 26.4189 21.2613C26.6182 21.0855 26.7991 20.9146 26.9649 20.7102C27.1693 20.464 27.7488 19.727 27.7204 19.2613C27.1844 19.1809 25.7405 21.0268 25.6936 21.6215H25.6919Z" fill="#4C89C5"/>
<path fill-rule="evenodd" clip-rule="evenodd" d="M25.9964 20.2211C26.1489 20.2312 26.2058 20.1257 26.2762 20.0218C26.4939 19.7136 26.6648 19.3518 26.7703 18.9632C26.9311 18.3752 27.0886 17.8526 26.9412 17.2061C26.4185 17.263 25.8356 19.6851 25.9964 20.2211Z" fill="#4C89C5"/>
<path fill-rule="evenodd" clip-rule="evenodd" d="M24.9284 22.0721C25.1461 22 25.3656 21.3401 25.446 21.0704C25.5783 20.6248 25.7408 19.3518 25.4795 18.9531C25.1662 18.9481 24.9569 20.1072 24.9234 20.3166C24.8714 20.6449 24.7341 21.8124 24.9284 22.0737V22.0721Z" fill="#4C89C5"/>
<path fill-rule="evenodd" clip-rule="evenodd" d="M12.4354 22.077C12.5878 21.9581 12.5643 21.4171 12.5543 21.2412C12.5359 20.9229 12.5107 20.6717 12.4638 20.3584C12.4253 20.0971 12.2411 19.0485 11.9329 18.938C11.5861 19.3701 11.824 20.8325 12.0702 21.4539C12.1992 21.7772 12.2277 21.8392 12.4354 22.0753V22.077Z" fill="#4C89C5"/>
<path fill-rule="evenodd" clip-rule="evenodd" d="M11.6851 21.6265C11.6097 20.9615 10.2077 19.2044 9.65328 19.2529C9.60973 19.9598 11.1022 21.6801 11.6851 21.6265Z" fill="#4C89C5"/>
<path fill-rule="evenodd" clip-rule="evenodd" d="M24.382 23.2414C25.3987 23.2313 26.6651 22.5094 27.0939 21.7455C26.2346 21.707 25.2095 22.3536 24.5914 22.9047C24.4959 22.9901 24.377 23.0655 24.382 23.2414Z" fill="#4C89C5"/>
<path fill-rule="evenodd" clip-rule="evenodd" d="M12.9343 23.0837C13.0482 22.7889 11.6328 22.01 11.2391 21.8308C10.9309 21.6935 10.7316 21.6834 10.3647 21.6499C10.3982 21.8023 10.4736 21.8777 10.5507 21.9682C11.0398 22.5561 12.4837 23.2646 12.9343 23.0837Z" fill="#4C89C5"/>
<path fill-rule="evenodd" clip-rule="evenodd" d="M65.4256 16.722C64.9181 16.722 64.7757 16.7656 64.9599 16.2279C65.0638 15.9247 65.1593 15.6433 65.2548 15.3502C65.4407 14.7857 65.7053 14.1341 65.8477 13.5981C65.8946 13.645 65.8862 13.6316 65.9382 13.712C65.9432 13.727 65.9532 13.7404 65.9616 13.7505C65.9666 13.7656 65.9717 13.779 65.98 13.794L66.1794 14.3736C67.0956 17.1039 67.2899 16.7187 65.4239 16.7237L65.4256 16.722ZM65.6534 12.0168C65.573 12.8761 64.9784 14.186 64.6752 14.9934C64.4373 15.6148 63.1275 19.4808 62.6618 19.8895C62.2162 20.2781 61.6316 19.9281 61.6735 20.4172C61.707 20.7924 62.362 20.6265 62.9181 20.6064C63.4692 20.588 64.3703 20.6919 64.841 20.6215C64.9733 20.3317 64.9499 20.1709 64.6233 20.109C64.3 20.042 64.1526 20.052 63.8728 19.9096C63.8343 19.521 64.2146 18.5662 64.3754 18.0905C64.6266 17.3502 64.3184 17.4071 66.764 17.4691C67.0671 17.4741 67.1677 17.4842 67.2581 17.6919C67.3955 18.0001 67.9231 19.6818 67.8611 19.9616C67.5194 20.1374 66.9499 20.0185 66.9834 20.4172C67.0119 20.7739 67.4541 20.6265 68.099 20.6115C69.0253 20.588 69.9231 20.6299 70.8343 20.6349C71.2799 20.6399 71.0437 20.5311 71.3184 20.5964C71.5462 20.6483 74.0956 20.6014 74.6283 20.6198C74.8427 20.6249 75.094 20.6483 75.2983 20.6433C75.6635 20.6433 75.6166 20.5629 75.5697 20.1827C74.6635 19.8074 74.3871 20.4674 74.3636 18.8627C74.3536 18.392 74.3067 16.6081 74.4072 16.2932C74.5362 16.1123 77.3419 16.1894 77.9164 16.1927L78.2631 16.2363C78.5914 16.3786 78.4206 18.5629 78.4105 19.0286C78.4005 19.4842 78.3955 19.8929 78.0303 20.0353C77.6417 20.1877 77.1375 19.9683 77.3754 20.6232C77.7506 20.6701 79.9449 20.5897 80.8075 20.6182C81.3586 20.6366 81.6149 20.8225 81.5295 20.1961C80.8645 19.7873 80.4373 20.5612 80.4189 18.6902C80.4139 17.8543 80.3285 12.6651 80.5278 12.2178C80.7037 11.8326 81.1258 11.9951 81.4591 11.8141L81.4826 11.4105C81.1643 11.315 79.5881 11.4054 79.1425 11.4004C77.4089 11.3904 77.1392 11.1441 77.295 11.846C78.2732 12.0269 78.3971 11.913 78.4105 13.057C78.4206 13.4507 78.4909 15.1224 78.3536 15.3267C78.2732 15.4121 78.429 15.3451 78.2162 15.4172C78.1358 15.4456 74.5462 15.521 74.4122 15.3451C74.3117 15.0453 74.3553 13.5461 74.3653 13.114C74.3938 11.4004 74.9532 12.1877 75.3486 11.8225C75.444 11.7371 75.4574 11.4808 75.3335 11.4004C75.233 11.3334 74.9248 11.377 74.7924 11.382C73.7187 11.4255 71.9951 11.325 71.2782 11.382L71.2598 11.8426C72.233 12.052 72.362 11.7572 72.362 13.3954V18.6902C72.3569 20.7371 71.8494 19.6919 71.2129 20.2664C71.099 20.0487 71.2799 20.186 70.6333 20.0621C70.3586 20.0101 70.2246 19.9096 70.1057 19.7538C69.697 19.2312 67.3134 11.6433 67.0621 11.2162C66.5161 11.1693 66.5914 11.7857 65.6568 12.0135L65.6534 12.0168Z" fill="white"/>
<path fill-rule="evenodd" clip-rule="evenodd" d="M115.693 16.1139C116.667 15.8191 117.725 16.2043 118.129 16.8878C118.566 17.6198 118.518 18.9246 117.997 19.5377C117.44 20.1876 116.087 20.2311 115.765 19.3568C115.6 18.9112 115.579 16.5695 115.693 16.1139ZM106.263 16.6499C106.183 16.3601 106.576 15.4338 106.69 15.0871C106.804 14.7504 107.084 13.8375 107.231 13.6198C107.43 13.866 108.243 16.3166 108.181 16.6817C107.782 16.7672 106.561 16.8007 106.263 16.6482V16.6499ZM115.973 12.0301C117.997 11.6499 118.631 14.2244 117.43 15.1206C117.117 15.3584 116.742 15.4238 116.263 15.4238C115.484 15.4238 115.636 15.3099 115.636 14.5695C115.636 14.0854 115.641 13.6013 115.641 13.1172C115.636 12.6851 115.509 12.1156 115.973 12.0301ZM107.008 12.0117C106.928 12.876 105.303 16.9447 104.891 18.0268C104.715 18.4925 104.526 19.01 104.311 19.4556C103.851 20.4187 103.186 19.9162 103.054 20.268C102.836 20.8425 103.804 20.5963 104.668 20.5997C104.997 20.6047 105.333 20.6047 105.66 20.6181C106.121 20.6365 106.353 20.7705 106.219 20.196C106.082 20.1105 105.456 20.0017 105.228 19.9162C105.189 19.531 105.422 19.01 105.536 18.6667L105.826 17.7839C105.935 17.4606 105.955 17.4523 106.956 17.4657C108.633 17.4891 108.481 17.2663 108.76 18.1692C108.874 18.5293 109.288 19.6315 109.216 19.9497C108.727 20.2295 108.204 19.9062 108.385 20.6147C109.734 20.5997 115.896 20.5712 116.32 20.6533C118.124 20.6533 119.891 20.3735 120.432 18.9531C120.74 18.1407 120.621 17.2864 120.199 16.6549C119.909 16.2177 119.454 15.933 118.921 15.7571C118.683 15.6767 118.476 15.6951 118.38 15.5142C118.66 15.3149 119.382 15.2713 119.819 14.5511C120.151 14 120.119 13.2027 119.819 12.6281C119.012 11.0938 115.978 11.3216 114.268 11.407C113.755 11.4355 112.702 11.3735 112.64 11.6784C112.497 12.3333 113.481 11.7253 113.66 12.4858C113.769 12.9414 113.712 17.4472 113.712 18.6399C113.712 19.603 113.802 19.8928 112.92 20.0888C112.407 20.1976 111.657 20.1558 111.372 19.6281C111.144 19.2144 110.94 18.5126 110.764 18.0084L108.442 11.2898C108.124 10.9581 107.891 11.7973 107.008 12.0117Z" fill="white"/>
<path fill-rule="evenodd" clip-rule="evenodd" d="M87.8591 14.68C87.6363 15.6633 87.0902 16.0469 85.9361 15.9581C85.3331 15.9145 85.4989 15.4221 85.4989 14.8475C85.4989 14.3115 85.4989 13.7705 85.4939 13.2328C85.4939 12.7671 85.3566 12.0837 85.8306 12.0167C87.2075 11.8174 88.2142 13.1273 87.8574 14.68H87.8591ZM82.5324 11.541L82.5174 11.9547C82.8122 12.0452 83.3063 11.9832 83.4671 12.2964C83.6815 12.6951 83.586 17.938 83.586 18.7487C83.576 20.5728 83.1154 19.7219 82.442 20.211C82.3515 20.809 82.6463 20.6381 83.1589 20.6197L85.5944 20.6097C86.2125 20.6281 86.6061 20.7571 86.6631 20.4673C86.7536 20.0117 86.241 20.1256 85.9077 20.0067C85.5509 19.8743 85.5324 19.5611 85.509 19.1289C85.4906 18.7202 85.4185 16.9346 85.5525 16.7068C85.6279 16.6063 85.705 16.5929 85.8809 16.5829C86.7971 16.5494 86.7217 17.1859 87.3582 18.3869C87.8139 19.2412 88.236 20.015 89.0768 20.4103C89.8457 20.7671 90.6631 20.7236 91.4839 20.6097L95.9479 20.6197C96.1991 20.0016 95.7334 20.149 95.3063 20.0268C94.8926 19.9028 94.8607 19.5946 94.8356 19.139C94.7921 18.2177 94.8256 17.2261 94.8256 16.2948C94.8256 15.7303 94.7452 12.6716 94.9395 12.2546C95.0869 11.9413 95.5609 11.9313 95.9797 11.8509L96.0031 11.3802L91.6731 11.3953L91.6547 11.8509C93.05 12.1457 92.8272 11.8693 92.8272 15.1842C92.8272 15.9966 92.9227 19.1021 92.7519 19.6566C92.6514 19.9648 92.4152 20.0217 92.0735 20.0837C91.5793 20.1742 91.7552 20.2881 91.2477 20.1306C89.8608 19.6985 88.4604 16.2562 88.4755 16.0988C89.0551 15.6817 89.9244 15.4053 90.0333 14.1809C90.1371 13.0033 89.5257 12.2964 88.8457 11.8827C88.0902 11.4271 86.9127 11.3651 85.8876 11.3701C85.2276 11.3701 82.973 11.3701 82.5358 11.541H82.5324Z" fill="white"/>
<path fill-rule="evenodd" clip-rule="evenodd" d="M51.4085 20.1743C51.313 20.3686 51.313 20.4205 51.4085 20.6165C51.499 20.6349 55.5727 20.6316 55.6347 20.6165C55.7301 20.4172 55.7017 20.4222 55.6732 20.1743C54.6715 19.8326 54.4822 20.3837 54.4672 18.8075C54.4621 18.3284 54.3583 16.5328 54.5526 16.248C54.6816 16.1525 57.4387 16.1911 58.0132 16.1911C58.7251 16.1961 58.5308 16.2631 58.5157 18.7505C58.5006 20.4172 58.179 19.9096 57.447 20.1793C57.4186 20.4222 57.3901 20.4172 57.4856 20.6115C57.6715 20.6634 60.1589 20.5964 60.8608 20.6215C61.4487 20.645 61.71 20.8209 61.6246 20.1894C60.9412 19.8376 60.5224 20.5026 60.5191 18.6936C60.514 17.8292 60.4186 12.6969 60.628 12.2313C60.7988 11.851 61.1975 11.9884 61.5593 11.8225L61.5777 11.4088L57.3901 11.3904L57.3666 11.851C58.3834 12.0453 58.4923 11.8745 58.5107 13.0621C58.5207 13.4842 58.6012 15.0989 58.4537 15.3418C58.3214 15.5076 57.8658 15.4457 57.561 15.4457C57.0199 15.4457 54.6832 15.5261 54.5308 15.3736C54.3985 15.2447 54.365 12.4825 54.6162 12.1257C54.7871 11.8929 55.2192 11.9448 55.4805 11.8175L55.499 11.4088L51.3817 11.3904C51.1355 12.5244 52.3934 11.1157 52.4588 12.8962C52.5107 14.4055 52.4638 16.856 52.4638 18.4708C52.4638 20.4373 52.236 19.8812 51.4052 20.176L51.4085 20.1743Z" fill="white"/>
<path fill-rule="evenodd" clip-rule="evenodd" d="M122.088 13.6834C122.435 12.8945 122.596 12.33 123.522 12.1306C123.926 12.0452 126.172 11.9598 126.4 12.1256C126.485 12.2211 126.305 12.4824 126.211 12.6432L125.199 14.2529C124.738 14.9749 124.268 15.6683 123.812 16.3752L121.39 20.0268C121.209 20.2831 120.764 20.6734 121.604 20.6198C123.742 20.4958 126.951 20.7286 129.03 20.6348C129.305 20.3266 129.661 18.7789 129.651 18.2378C129.043 17.9816 129.181 18.1993 128.691 18.9698C128.44 19.3635 128.164 19.6968 127.623 19.8526C127.058 20.01 124.507 20.0285 123.971 19.8476C123.953 19.4958 124.996 18.01 125.216 17.6683C126.166 16.1591 127.936 13.3568 128.995 11.9698C129.127 11.7889 129.331 11.6415 129.269 11.4422C129.254 11.4322 129.231 11.4087 129.222 11.4238C129.217 11.4389 129.194 11.4087 129.179 11.4054C128.956 11.3585 128.648 11.3953 128.415 11.4003C128.097 11.4054 127.784 11.4054 127.465 11.4054C126.901 11.4104 123.03 11.4338 122.75 11.3668C122.284 11.2579 122.665 11.01 122.114 11.0636C121.966 11.278 121.814 12.3216 121.743 12.6399C121.596 13.2814 121.226 13.8124 122.085 13.6851L122.088 13.6834Z" fill="white"/>
<path fill-rule="evenodd" clip-rule="evenodd" d="M44.6384 17.9128C44.0639 17.8273 44.0789 18.0602 44.2347 19.1372C44.3017 19.5878 44.3637 20.1623 44.7473 20.3617C46.1242 21.0886 48.8595 21.0551 49.9751 19.5778C50.4927 18.8943 50.6401 17.7118 50.2364 16.819C49.4474 15.0769 47.089 14.9915 46.4575 13.633C45.9634 12.5694 46.8997 11.7386 47.9148 11.8424C49.0689 11.9664 49.3922 13.2377 49.6233 13.623C50.0739 13.6799 50.1459 13.69 50.1309 13.2344C50.1208 12.9731 50.0974 12.6749 50.0639 12.4136C49.9265 11.365 49.898 11.5443 49.3603 11.3969C48.4005 11.1305 47.2146 11.0937 46.2984 11.4404C45.486 11.7436 44.8696 12.2947 44.6552 13.2025C44.0957 15.633 46.6351 16.4036 47.5044 17.0434C50.1443 18.9848 47.3469 21.7637 45.2297 19.0384C44.9349 18.6582 44.8545 18.2411 44.6367 17.9128H44.6384Z" fill="white"/>
<path fill-rule="evenodd" clip-rule="evenodd" d="M97.2041 17.9179C96.6346 17.8224 96.6346 18.0553 96.8005 19.1474C96.8725 19.598 96.9294 20.1675 97.313 20.3685C98.0634 20.7571 99.3164 20.9045 100.271 20.7672C101.296 20.6248 102.08 20.1876 102.546 19.5796C103.058 18.9012 103.201 17.7136 102.802 16.8258C102.005 15.0603 99.6966 15.0168 99.0232 13.6399C98.7804 13.1407 98.9378 12.5913 99.2092 12.2814C99.8557 11.5461 101.166 11.6214 101.921 13.0268C102.025 13.2211 102.092 13.469 102.192 13.6248C102.723 13.6918 102.8 13.7286 102.635 12.4338C102.611 12.2245 102.563 11.8827 102.511 11.7119C102.43 11.4372 102.244 11.4791 101.931 11.3987C100.197 10.933 97.7335 11.1709 97.236 13.1558C96.9696 14.2194 97.308 14.9883 97.9864 15.6817C98.9127 16.6315 101.775 17.3434 101.045 19.3049C100.742 20.1256 99.6011 20.4724 98.6849 19.8844C98.2963 19.6332 98.0768 19.3953 97.8072 19.0436C97.5123 18.6583 97.4269 18.2412 97.2092 17.9179H97.2041Z" fill="white"/>
<path fill-rule="evenodd" clip-rule="evenodd" d="M120.807 24.7705C120.774 24.1675 120.792 22.9799 121.164 22.6432C121.488 22.3484 121.853 22.5678 122 22.8861C122.303 23.5461 122.352 25.5779 121.814 26.0302C121.116 26.6231 120.836 25.3551 120.807 24.7722V24.7705ZM119.948 24.8794C120.3 27.2479 123.556 26.8878 123.059 23.7772C122.689 21.4506 119.493 21.7638 119.948 24.8794Z" fill="white"/>
<path fill-rule="evenodd" clip-rule="evenodd" d="M116.71 23.5391C116.782 23.3398 116.801 22.3231 117.759 22.5475C118.315 22.6715 118.357 23.4118 118.129 23.9579C117.687 25.0165 116.586 25.8909 116.396 26.3231H119.102L119.434 25.045C119.126 25.2309 119.258 25.5291 118.707 25.581C118.432 25.6045 117.796 25.5994 117.524 25.571C117.672 25.4989 118.451 24.7871 118.588 24.6363C118.878 24.3281 119.263 23.8624 119.158 23.2159C119.077 22.6882 118.588 22.37 118.019 22.2896C117.245 22.1757 116.937 22.4185 116.414 22.6363L116.665 23.4721C116.665 23.4822 116.684 23.5157 116.684 23.5056C116.689 23.4956 116.699 23.5291 116.707 23.5391H116.71Z" fill="white"/>
<path fill-rule="evenodd" clip-rule="evenodd" d="M123.789 23.5394C123.861 23.335 123.884 22.3233 124.837 22.5427C125.383 22.6717 125.435 23.4071 125.202 23.9582C124.975 24.4992 124.31 25.3736 123.901 25.7722C123.754 25.9196 123.544 26.129 123.469 26.3283L126.181 26.3233L126.509 25.0503C126.209 25.2211 126.333 25.5293 125.787 25.5813C125.507 25.6047 124.881 25.5997 124.604 25.5712L125.663 24.6315C126.688 23.5059 126.29 22.4523 125.099 22.2865C124.32 22.1826 124.016 22.4154 123.494 22.6382L123.789 23.5411V23.5394Z" fill="white"/>
<path fill-rule="evenodd" clip-rule="evenodd" d="M82.5746 24.2045C82.727 24.3234 82.66 24.2665 82.7605 24.4323C82.8125 24.5127 82.8644 24.6082 82.9079 24.6785C83.8426 26.2547 83.7538 26.3016 84.2095 25.5428C84.3954 25.2296 84.8878 24.3318 85.0587 24.171L85.0637 26.3837L85.5059 26.3988L85.4775 23.2229L85.1257 23.233L83.8192 25.4021L82.7371 23.6216C82.5227 23.2514 82.6232 23.2279 82.124 23.2279V26.4088L82.5696 26.3653L82.5746 24.2045Z" fill="white"/>
<path fill-rule="evenodd" clip-rule="evenodd" d="M127.526 24.603C127.658 24.3652 127.787 24.2798 128.005 24.0754C128.176 23.9146 128.285 23.7337 128.466 23.5913L128.499 24.6081L127.526 24.603ZM130 24.4607C129.985 24.4657 129.972 24.4791 129.957 24.4891C129.946 24.4942 129.928 24.5076 129.913 24.5126C129.685 24.6449 129.662 24.6265 129.367 24.6265L129.362 22.2664C129.134 22.3568 128.891 22.7404 128.663 22.9498L127.357 24.3786C127.101 24.6499 126.873 24.7772 126.715 25.119L128.496 25.129C128.524 25.4523 128.591 26.0117 128.382 26.1826C128.32 26.2295 128.297 26.2295 128.24 26.263L129.735 26.3099C129.526 26.1675 129.389 26.2245 129.365 25.8828C129.35 25.6834 129.36 25.3233 129.38 25.119L129.869 25.1139L129.998 24.459L130 24.4607Z" fill="white"/>
<path fill-rule="evenodd" clip-rule="evenodd" d="M63.8628 23.6297C65.5479 23.2495 65.9231 25.7101 64.4273 26.0033C62.7556 26.3266 62.3235 23.9798 63.8628 23.6297ZM62.4809 25.1021C62.8042 27.077 66.1325 26.8023 65.8142 24.546C65.5295 22.5091 62.1158 22.8458 62.4809 25.1021Z" fill="white"/>
<path fill-rule="evenodd" clip-rule="evenodd" d="M72.3667 25.0504L72.3617 23.6266C73.0552 23.6266 74.0133 23.5027 74.0133 24.3251C74.0133 25.1475 73.1255 25.0521 72.3651 25.0521L72.3667 25.0504ZM73.7956 25.382C74.0619 25.1107 74.3131 25.1442 74.4371 24.6417C74.7939 23.1693 73.0418 23.1073 71.9111 23.2413V26.3938L72.3718 26.3703V25.439L73.3399 25.444C73.4689 25.5764 73.9379 26.2514 73.9999 26.3988L74.5024 26.3888C74.4019 26.166 73.9614 25.5864 73.7956 25.382Z" fill="white"/>
<path fill-rule="evenodd" clip-rule="evenodd" d="M53.5357 23.625C55.1839 23.2682 55.6245 25.7137 54.0633 26.0085C52.3967 26.3168 51.9746 23.9667 53.5357 23.625ZM52.1203 24.9935C52.3297 27.0688 55.663 26.8544 55.4821 24.6752C55.3062 22.5714 51.8925 22.7707 52.1203 24.9935Z" fill="white"/>
<path fill-rule="evenodd" clip-rule="evenodd" d="M44.799 23.63L46.5695 23.625L46.5612 23.2263H44.3518L44.3384 26.3988H46.6416L46.6365 25.9952H44.799V24.9834L46.3602 24.9784L46.3803 24.5898H44.804L44.799 24.1576V23.63Z" fill="white"/>
<path fill-rule="evenodd" clip-rule="evenodd" d="M98.2528 23.6299C98.8659 23.6299 99.6682 23.526 99.8525 24.0671C100.218 25.1542 98.8793 25.0453 98.2528 25.0453V23.6299ZM98.2579 25.444C98.7888 25.444 99.3969 25.5009 99.824 25.2731C100.166 25.0922 100.427 24.6751 100.337 24.1341C100.156 23.052 98.9028 23.2279 97.7956 23.2279L97.7905 26.4038L98.2512 26.3937L98.2562 25.444H98.2579Z" fill="white"/>
<path fill-rule="evenodd" clip-rule="evenodd" d="M94.745 23.7639C94.7835 23.8024 94.755 23.7539 94.817 23.8594L95.41 25.2363L94.085 25.2178L94.745 23.7656V23.7639ZM93.5808 26.3937C93.6194 26.2647 93.8756 25.6098 93.9661 25.6048L95.5992 25.6098L95.9225 26.3887L96.4066 26.3837C96.2307 25.8946 95.9041 25.2396 95.6663 24.7405C94.9594 23.2547 95.2056 23.2312 94.5322 23.2212L93.1118 26.3971L93.5825 26.392L93.5808 26.3937Z" fill="white"/>
<path fill-rule="evenodd" clip-rule="evenodd" d="M108.827 23.7255L109.474 25.2397L108.135 25.2297L108.829 23.7238L108.827 23.7255ZM107.963 25.6099L109.63 25.6149C109.816 25.8478 109.819 26.2464 110.075 26.4039L110.479 26.3888L109.017 23.2263H108.584L107.169 26.3988L107.63 26.3938L107.961 25.6099H107.963Z" fill="white"/>
<path fill-rule="evenodd" clip-rule="evenodd" d="M78.1309 26.0702C80.0773 27.2142 81.2364 25.4856 80.2012 24.8742C79.764 24.6129 78.625 24.6079 78.6535 24.0534C78.6719 23.7251 79.0136 23.5978 79.3603 23.5878C79.821 23.5727 79.9634 23.7117 80.3051 23.8256L80.4139 23.4404C78.3771 22.5007 77.3888 24.4287 78.9332 24.9211C79.4608 25.092 79.6602 25.035 80.0823 25.3633C80.1543 25.9044 79.888 26.0417 79.3603 26.0467C78.9047 26.0518 78.5999 25.8575 78.2783 25.705L78.1309 26.0702Z" fill="white"/>
<path fill-rule="evenodd" clip-rule="evenodd" d="M67.4239 25.2445C67.3485 26.8023 70.0588 26.8727 70.0504 25.278V23.2512H69.6752L69.6651 25.1072C69.4608 26.3701 67.9984 26.3702 67.8226 24.9983C67.7941 24.7705 67.8276 24.4707 67.8276 24.2663C67.8326 23.9296 67.8276 23.5913 67.8276 23.2546H67.434L67.4239 25.2445Z" fill="white"/>
<path fill-rule="evenodd" clip-rule="evenodd" d="M91.7722 25.6617C91.0033 26.4255 89.6399 25.928 89.6784 24.7689C89.7069 23.9515 90.6097 23.0972 91.8007 23.9565L92.072 23.7103C91.5879 22.7756 89.2043 23.0403 89.2228 24.8259C89.2378 26.6533 91.5594 26.7672 92.0804 25.9364C91.9849 25.779 91.9481 25.7421 91.7722 25.6617Z" fill="white"/>
<path fill-rule="evenodd" clip-rule="evenodd" d="M50.5963 25.6767C48.7588 26.9916 47.6282 24.3098 49.2295 23.6817C49.9514 23.3969 50.3602 23.8241 50.5963 23.948C50.7722 23.8525 50.8107 23.8341 50.8811 23.6348C49.4707 22.5996 47.9615 23.4974 48.0084 24.8844C48.0603 26.4321 50.0972 26.9396 50.8761 25.9296L50.5963 25.6783V25.6767Z" fill="white"/>
<path fill-rule="evenodd" clip-rule="evenodd" d="M105.324 23.63L106.397 23.6216L106.374 23.2263H103.776L103.799 23.63H104.85V26.3888L105.305 26.3988L105.324 23.63Z" fill="white"/>
<path fill-rule="evenodd" clip-rule="evenodd" d="M59.8275 26.3987L60.2832 26.3786V23.6299H61.3317L61.3418 23.2212L58.7488 23.2312L58.7388 23.6215L59.8175 23.64L59.8275 26.3987Z" fill="white"/>
<path fill-rule="evenodd" clip-rule="evenodd" d="M111.858 26.3988L114.032 26.3888L114.022 26.0002L112.313 25.9952L112.29 23.2263H111.871L111.853 26.2179L111.858 26.3988Z" fill="white"/>
<path fill-rule="evenodd" clip-rule="evenodd" d="M76.1089 26.3988L76.5678 26.3888V23.2464L76.1089 23.2263V26.1091V26.3988Z" fill="white"/>
<path fill-rule="evenodd" clip-rule="evenodd" d="M101.928 26.3988H102.383L102.365 23.2263H101.943L101.928 25.7724V26.3988Z" fill="white"/>
</svg>
